<?xml version="1.0" encoding="UTF-8"?>
<!DOCTYPE svg PUBLIC "-//W3C//DTD SVG 1.1//EN" "http://www.w3.org/Graphics/SVG/1.1/DTD/svg11.dtd">

<svg xmlns="http://www.w3.org/2000/svg" xmlns:xlink="http://www.w3.org/1999/xlink" xmlns:xs="http://www.w3.org/2001/XMLSchema" xmlns:wb="http://www.ti.com/webench" version="1.1" width="100%" height="100%" viewBox="0 0 1215.0 620.0" preserveAspectRatio="xMidYMid meet">
  <defs>
    <g id="WB_CONTINUATION">
      <circle xmlns="" opacity="0.01" fill="#ffffff" stroke="#000000" stroke-width="0" cx="0" cy="0" r="14" />
      <line fill="none" stroke="#CC0000" stroke-width="2" x1="0" y1="10" x2="0" y2="-10" />
      <line fill="none" stroke="#CC0000" stroke-width="2" x1="-10" y1="-10" x2="10" y2="-10" />
    </g>
    <g id="WB_CURRENT_PROBE">
      <circle xmlns="" opacity="0.01" fill="#ffffff" stroke="#000000" stroke-width="0" cx="0" cy="0" r="14" />
      <line stroke="#CC0000" stroke-width="2" stroke-linecap="square" stroke-linejoin="round" x1="-16" y1="0" x2="-10" y2="0" />
      <polyline stroke="#CC0000" stroke-width="2" stroke-linecap="square" stroke-linejoin="round" points="6,0 3,-3.5 3,3.5 6,0 -6,0 " />
      <line stroke="#CC0000" stroke-width="2" stroke-linecap="square" stroke-linejoin="round" x1="10" y1="0" x2="16" y2="0" />
      <rect stroke-width="1" x="-9.5" y="-7" fill="none" stroke="#CC0000" width="19" height="14" />
    </g>
    <g id="WB_PWL_CURRENT_LOAD">
      <circle xmlns="" opacity="0.01" fill="#ffffff" stroke="#000000" stroke-width="0" cx="0" cy="0" r="14" />
      <circle fill-opacity="0.01" fill="#CC0000" stroke="#CC0000" stroke-width="2" cx="0" cy="0" r="14" />
      <line y1="0" x2="-20" stroke="#CC0000" x1="-30" fill="none" stroke-width="2" y2="0" />
      <line y1="0" x2="20" stroke="#CC0000" x1="30" fill="none" stroke-width="2" y2="0" />
      <polyline stroke="#CC0000" points="-7,6 4,8  " stroke-linejoin="round" fill="none" stroke-width="2" stroke-linecap="round" />
      <polyline stroke="#CC0000" points="-7,-6 4,-8  " stroke-linejoin="round" fill="none" stroke-width="2" stroke-linecap="round" />
      <polyline stroke="#CC0000" points="-20,0 -15,0  " stroke-linejoin="round" fill="none" stroke-width="2" stroke-linecap="round" />
      <polyline stroke="#CC0000" points="20,0 15,0  " stroke-linejoin="round" fill="none" stroke-width="2" stroke-linecap="round" />
      <polyline stroke="#CC0000" points="-7,-6 -7,6  " stroke-linejoin="round" fill="none" stroke-width="2" stroke-linecap="round" />
      <polyline stroke="#CC0000" points="4,-8 4,-11  " stroke-linejoin="round" fill="none" stroke-width="2" stroke-linecap="round" />
      <polyline stroke="#CC0000" points="4,8 4,11  " stroke-linejoin="round" fill="none" stroke-width="2" stroke-linecap="round" />
      <line x1="23" y1="-13" x2="23" y2="-7" stroke="#CC0000" fill="none" stroke-width="2" stroke-linecap="round" />
      <line x1="-23" y1="-13" x2="-23" y2="-7" stroke="#CC0000" fill="none" stroke-width="2" stroke-linecap="round" />
      <line x1="-26" y1="-10" x2="-20" y2="-10" stroke="#CC0000" fill="none" stroke-width="2" stroke-linecap="round" />
    </g>
    <g id="WB_BLOCK_IO">
      <circle xmlns="" opacity="0.01" fill="#ffffff" stroke="#000000" stroke-width="0" cx="0" cy="0" r="14" />
      <line stroke="#CC0000" fill="none" stroke-width="2" x1="-5" y1="0" x2="5" y2="0" />
    </g>
    <g id="WB_PWL_VOLTAGE_SOURCE">
      <circle xmlns="" opacity="0.01" fill="#ffffff" stroke="#000000" stroke-width="0" cx="0" cy="0" r="14" />
      <circle fill-opacity="0.01" fill="#CC0000" stroke="#CC0000" stroke-width="2" cx="0" cy="0" r="14" />
      <line y1="0" x2="-20" stroke="#CC0000" x1="-30" fill="none" stroke-width="2" y2="0" />
      <line y1="0" x2="20" stroke="#CC0000" x1="30" fill="none" stroke-width="2" y2="0" />
      <polyline stroke="#CC0000" points="-7,6 4,8  " stroke-linejoin="round" fill="none" stroke-width="2" stroke-linecap="round" />
      <polyline stroke="#CC0000" points="-7,-6 4,-8  " stroke-linejoin="round" fill="none" stroke-width="2" stroke-linecap="round" />
      <polyline stroke="#CC0000" points="-20,0 -15,0  " stroke-linejoin="round" fill="none" stroke-width="2" stroke-linecap="round" />
      <polyline stroke="#CC0000" points="20,0 15,0  " stroke-linejoin="round" fill="none" stroke-width="2" stroke-linecap="round" />
      <polyline stroke="#CC0000" points="-7,-6 -7,6  " stroke-linejoin="round" fill="none" stroke-width="2" stroke-linecap="round" />
      <polyline stroke="#CC0000" points="4,-8 4,-11  " stroke-linejoin="round" fill="none" stroke-width="2" stroke-linecap="round" />
      <polyline stroke="#CC0000" points="4,8 4,11  " stroke-linejoin="round" fill="none" stroke-width="2" stroke-linecap="round" />
      <line x1="23" y1="-13" x2="23" y2="-7" stroke="#CC0000" fill="none" stroke-width="2" stroke-linecap="round" />
      <line x1="-23" y1="-13" x2="-23" y2="-7" stroke="#CC0000" fill="none" stroke-width="2" stroke-linecap="round" />
      <line x1="-26" y1="-10" x2="-20" y2="-10" stroke="#CC0000" fill="none" stroke-width="2" stroke-linecap="round" />
    </g>
    <g id="WB_SOURCE_RESISTOR">
      <circle xmlns="" opacity="0.01" fill="#ffffff" stroke="#000000" stroke-width="0" cx="0" cy="0" r="14" />
      <polyline fill="none" stroke="#CC0000" stroke-width="2" stroke-linecap="round" stroke-linejoin="round" points="30,0 20,0 15,-6 7.5,6 0,-6 -7.5,6 -15,-6 -20,0 -30,0" />
    </g>
    <g id="WB_PRIM_PWL_VOLTAGE_SOURCE">
      <circle xmlns="" opacity="0.01" fill="#ffffff" stroke="#000000" stroke-width="0" cx="0" cy="0" r="14" />
      <circle fill-opacity="0.01" fill="#CC0000" stroke="#CC0000" stroke-width="2" cx="0" cy="0" r="14" />
      <line y1="0" x2="-20" stroke="#CC0000" x1="-30" fill="none" stroke-width="2" y2="0" />
      <line y1="0" x2="20" stroke="#CC0000" x1="30" fill="none" stroke-width="2" y2="0" />
      <polyline stroke="#CC0000" points="-7,6 4,8  " stroke-linejoin="round" fill="none" stroke-width="2" stroke-linecap="round" />
      <polyline stroke="#CC0000" points="-7,-6 4,-8  " stroke-linejoin="round" fill="none" stroke-width="2" stroke-linecap="round" />
      <polyline stroke="#CC0000" points="-20,0 -15,0  " stroke-linejoin="round" fill="none" stroke-width="2" stroke-linecap="round" />
      <polyline stroke="#CC0000" points="20,0 15,0  " stroke-linejoin="round" fill="none" stroke-width="2" stroke-linecap="round" />
      <polyline stroke="#CC0000" points="-7,-6 -7,6  " stroke-linejoin="round" fill="none" stroke-width="2" stroke-linecap="round" />
      <polyline stroke="#CC0000" points="4,-8 4,-11  " stroke-linejoin="round" fill="none" stroke-width="2" stroke-linecap="round" />
      <polyline stroke="#CC0000" points="4,8 4,11  " stroke-linejoin="round" fill="none" stroke-width="2" stroke-linecap="round" />
      <line x1="23" y1="-13" x2="23" y2="-7" stroke="#CC0000" fill="none" stroke-width="2" stroke-linecap="round" />
      <line x1="-23" y1="-13" x2="-23" y2="-7" stroke="#CC0000" fill="none" stroke-width="2" stroke-linecap="round" />
      <line x1="-26" y1="-10" x2="-20" y2="-10" stroke="#CC0000" fill="none" stroke-width="2" stroke-linecap="round" />
    </g>
    <g id="WB_BATTERY">
      <circle xmlns="" opacity="0.01" fill="#ffffff" stroke="#000000" stroke-width="0" cx="0" cy="0" r="14" />
      <line fill="none" stroke="#CC0000" stroke-width="2" x1="-8" y1="0" x2="-30" y2="0" />
      <line fill="none" stroke="#CC0000" stroke-width="2" x1="-7" y1="12" x2="-7" y2="-12" />
      <line fill="none" stroke="#CC0000" stroke-width="2" x1="4" y1="12" x2="4" y2="-12" />
      <line fill="none" stroke="#CC0000" stroke-width="2" x1="30" y1="0" x2="11" y2="0" />
      <line fill="none" stroke="#CC0000" stroke-width="2" x1="-2" y1="5" x2="-2" y2="-5" />
      <line fill="none" stroke="#CC0000" stroke-width="2" x1="-1" y1="5" x2="-1" y2="-5" />
      <line fill="none" stroke="#CC0000" stroke-width="2" x1="-14" y1="-9" x2="-14" y2="-15" />
      <line fill="none" stroke="#CC0000" stroke-width="2" x1="-11" y1="-12" x2="-17" y2="-12" />
      <line fill="none" stroke="#CC0000" stroke-width="2" x1="13" y1="-10" x2="13" y2="-15" />
      <line fill="none" stroke="#CC0000" stroke-width="2" x1="10" y1="5" x2="10" y2="-5" />
      <line fill="none" stroke="#CC0000" stroke-width="2" x1="9" y1="5" x2="9" y2="-5" />
    </g>
    <g id="WB_PRIMITIVE_BATTERY">
      <circle xmlns="" opacity="0.01" fill="#ffffff" stroke="#000000" stroke-width="0" cx="0" cy="0" r="14" />
      <line fill="none" stroke="#CC0000" stroke-width="2" x1="-8" y1="0" x2="-30" y2="0" />
      <line fill="none" stroke="#CC0000" stroke-width="2" x1="-7" y1="12" x2="-7" y2="-12" />
      <line fill="none" stroke="#CC0000" stroke-width="2" x1="4" y1="12" x2="4" y2="-12" />
      <line fill="none" stroke="#CC0000" stroke-width="2" x1="30" y1="0" x2="11" y2="0" />
      <line fill="none" stroke="#CC0000" stroke-width="2" x1="-2" y1="5" x2="-2" y2="-5" />
      <line fill="none" stroke="#CC0000" stroke-width="2" x1="-1" y1="5" x2="-1" y2="-5" />
      <line fill="none" stroke="#CC0000" stroke-width="2" x1="-14" y1="-9" x2="-14" y2="-15" />
      <line fill="none" stroke="#CC0000" stroke-width="2" x1="-11" y1="-12" x2="-17" y2="-12" />
      <line fill="none" stroke="#CC0000" stroke-width="2" x1="13" y1="-10" x2="13" y2="-15" />
      <line fill="none" stroke="#CC0000" stroke-width="2" x1="10" y1="5" x2="10" y2="-5" />
      <line fill="none" stroke="#CC0000" stroke-width="2" x1="9" y1="5" x2="9" y2="-5" />
    </g>
    <g id="WB_SYNC_CAPACITOR">
      <circle xmlns="" opacity="0.01" fill="#ffffff" stroke="#000000" stroke-width="0" cx="0" cy="0" r="14" />
      <line y1="0" x2="20" stroke="#CC0000" x1="30" fill="none" stroke-width="2" y2="0" />
      <line y1="0" x2="-20" stroke="#CC0000" x1="-30" fill="none" stroke-width="2" y2="0" />
      <polyline stroke="#CC0000" points="3,12 3,-12  " stroke-linejoin="round" fill="none" stroke-width="2" stroke-linecap="round" />
      <polyline stroke="#CC0000" points="-20,0 -3,0  " stroke-linejoin="round" fill="none" stroke-width="2" stroke-linecap="round" />
      <polyline stroke="#CC0000" points="3,0 20,0  " stroke-linejoin="round" fill="none" stroke-width="2" stroke-linecap="round" />
      <polyline stroke="#CC0000" points="-3,12 -3,-12  " stroke-linejoin="round" fill="none" stroke-width="2" stroke-linecap="round" />
    </g>
    <g id="WB_GND">
      <circle xmlns="" opacity="0.01" fill="#ffffff" stroke="#000000" stroke-width="0" cx="0" cy="0" r="14" />
      <line fill="none" stroke="black" stroke-width="2" x1="0" y1="-10" x2="0" y2="0" />
      <line fill="none" stroke="black" stroke-width="2" x1="-13" y1="0" x2="13" y2="0" />
      <line fill="none" stroke="black" stroke-width="2" x1="-9" y1="4" x2="9" y2="4" />
      <line fill="none" stroke="black" stroke-width="2" x1="-3" y1="8" x2="3" y2="8" />
    </g>
    <g id="WB_PRIMITIVE_INDUCTOR">
      <circle xmlns="" opacity="0.01" fill="#ffffff" stroke="#000000" stroke-width="0" cx="0" cy="0" r="14" />
      <path fill="none" stroke="#CC0000" stroke-width="2" stroke-linecap="round" stroke-linejoin="round" d="M-10,0c0-0.6-0.2-1.8-0.6-3.3c-0.5-2.4-2-3.7-4.4-4c-2.4,0.3-3.8,1.6-4.3,4c-0.6,2.3-0.8,3.6-0.7,3M-20,0H-30" />
      <path fill="none" stroke="#CC0000" stroke-width="2" stroke-linecap="round" stroke-linejoin="round" d="M0,0c0-0.6-0.2-1.8-0.6-3.3c-0.5-2.4-2-3.7-4.4-4c-2.4,0.3-3.8,1.6-4.3,4c-0.6,2.3-0.8,3.6-0.7,4" />
      <path fill="none" stroke="#CC0000" stroke-width="2" stroke-linecap="round" stroke-linejoin="round" d="M10,0c0-0.6-0.2-1.8-0.6-3.3c-0.5-2.4-2-3.7-4.4-4c-2.4,0.3-3.8,1.6-4.3,4c-0.6,2.3-0.8,3.6-0.7,4" />
      <path fill="none" stroke="#CC0000" stroke-width="2" stroke-linecap="round" stroke-linejoin="round" d="M30,0H20c0-0.6-0.2-1.8-0.6-3.3c-0.5-2.4-2-3.7-4.4-4c-2.4,0.3-3.8,1.6-4.3,4c-0.6,2.3-0.8,3.6-0.7,4" />
      <path fill="none" stroke="#CC0000" stroke-width="2" stroke-linecap="round" stroke-linejoin="round" d=" M10,0 c0.1,0.4,0.1,0.6,0,0.7" />
      <path fill="none" stroke="#CC0000" stroke-width="2" stroke-linecap="round" stroke-linejoin="round" d=" M0,0  c0.1,0.4,0.1,0.6,0,0.7" />
      <path fill="none" stroke="#CC0000" stroke-width="2" stroke-linecap="round" stroke-linejoin="round" d=" M-10,0c0.1,0.4,0.1,0.6,0,0.7" />
    </g>
    <g id="WB_PRIM_AC_VOLTAGE_SOURCE">
      <circle xmlns="" opacity="0.01" fill="#ffffff" stroke="#000000" stroke-width="0" cx="0" cy="0" r="14" />
      <circle fill-opacity="0.01" fill="#CC0000" stroke="#CC0000" stroke-width="2" cx="0" cy="0" r="14" />
      <line y1="0" x2="-20" stroke="#CC0000" x1="-30" fill="none" stroke-width="2" y2="0" />
      <line y1="0" x2="20" stroke="#CC0000" x1="30" fill="none" stroke-width="2" y2="0" />
      <polyline stroke="#CC0000" points="-20,0 -15,0  " stroke-linejoin="round" fill="none" stroke-width="2" stroke-linecap="round" />
      <polyline stroke="#CC0000" points="20,0 15,0  " stroke-linejoin="round" fill="none" stroke-width="2" stroke-linecap="round" />
      <path stroke="#CC0000" d="M0,10A5,5 0 0,1 0,0 " fill="none" stroke-width="2" stroke-linecap="round" />
      <path stroke="#CC0000" d="M0-10A5,5 0 1,1 0,0 " fill="none" stroke-width="2" stroke-linecap="round" />
      <line x1="23" y1="-13" x2="23" y2="-7" stroke="#CC0000" fill="none" stroke-width="2" stroke-linecap="round" />
      <line x1="-23" y1="-13" x2="-23" y2="-7" stroke="#CC0000" fill="none" stroke-width="2" stroke-linecap="round" />
      <line x1="-26" y1="-10" x2="-20" y2="-10" stroke="#CC0000" fill="none" stroke-width="2" stroke-linecap="round" />
    </g>
    <g id="WB_PRIM_STARTUP_VOLTAGE_SOURCE">
      <circle xmlns="" opacity="0.01" fill="#ffffff" stroke="#000000" stroke-width="0" cx="0" cy="0" r="14" />
      <circle fill-opacity="0.01" fill="#CC0000" stroke="#CC0000" stroke-width="2" cx="0" cy="0" r="14" />
      <polyline fill="none" stroke="#CC0000" stroke-width="2" points="-6,-11 -6,7 5,9 5,12 " />
      <line fill="none" stroke="#CC0000" stroke-width="2" x1="16" y1="-12" x2="16" y2="-18" />
      <line fill="none" stroke="#CC0000" stroke-width="2" x1="-17" y1="-12" x2="-17" y2="-18" />
      <line fill="none" stroke="#CC0000" stroke-width="2" x1="-14" y1="-15" x2="-20" y2="-15" />
      <line fill="none" stroke="#CC0000" stroke-width="2" x1="-15" y1="0" x2="-30" y2="0" />
      <line fill="none" stroke="#CC0000" stroke-width="2" x1="30" y1="0" x2="15" y2="0" />
    </g>
    <g id="WB_STARTUP_VOLTAGE_SOURCE">
      <circle xmlns="" opacity="0.01" fill="#ffffff" stroke="#000000" stroke-width="0" cx="0" cy="0" r="14" />
      <circle fill-opacity="0.01" fill="#CC0000" stroke="#CC0000" stroke-width="2" cx="0" cy="0" r="14" />
      <polyline fill="none" stroke="#CC0000" stroke-width="2" points="-6,-11 -6,7 5,9 5,12 " />
      <line fill="none" stroke="#CC0000" stroke-width="2" x1="16" y1="-12" x2="16" y2="-18" />
      <line fill="none" stroke="#CC0000" stroke-width="2" x1="-17" y1="-12" x2="-17" y2="-18" />
      <line fill="none" stroke="#CC0000" stroke-width="2" x1="-14" y1="-15" x2="-20" y2="-15" />
      <line fill="none" stroke="#CC0000" stroke-width="2" x1="-15" y1="0" x2="-30" y2="0" />
      <line fill="none" stroke="#CC0000" stroke-width="2" x1="30" y1="0" x2="15" y2="0" />
    </g>
    <g id="WB_CAPACITOR">
      <circle xmlns="" opacity="0.01" fill="#ffffff" stroke="#000000" stroke-width="0" cx="0" cy="0" r="14" />
      <line y1="0" x2="20" stroke="#115566" x1="30" fill="none" stroke-width="2" y2="0" />
      <line y1="0" x2="-20" stroke="#115566" x1="-30" fill="none" stroke-width="2" y2="0" />
      <polyline stroke="#115566" points="3,12 3,-12  " stroke-linejoin="round" fill="none" stroke-width="2" stroke-linecap="round" />
      <polyline stroke="#115566" points="-20,0 -3,0  " stroke-linejoin="round" fill="none" stroke-width="2" stroke-linecap="round" />
      <polyline stroke="#115566" points="3,0 20,0  " stroke-linejoin="round" fill="none" stroke-width="2" stroke-linecap="round" />
      <polyline stroke="#115566" points="-3,12 -3,-12  " stroke-linejoin="round" fill="none" stroke-width="2" stroke-linecap="round" />
    </g>
    <g id="WB_INDUCTOR">
      <circle xmlns="" opacity="0.01" fill="#ffffff" stroke="#000000" stroke-width="0" cx="0" cy="0" r="14" />
      <path fill="none" stroke="#115566" stroke-width="2" stroke-linecap="round" stroke-linejoin="round" d="M-10,0c0-0.6-0.2-1.8-0.6-3.3c-0.5-2.4-2-3.7-4.4-4c-2.4,0.3-3.8,1.6-4.3,4c-0.6,2.3-0.8,3.6-0.7,3M-20,0H-30" />
      <path fill="none" stroke="#115566" stroke-width="2" stroke-linecap="round" stroke-linejoin="round" d="M0,0c0-0.6-0.2-1.8-0.6-3.3c-0.5-2.4-2-3.7-4.4-4c-2.4,0.3-3.8,1.6-4.3,4c-0.6,2.3-0.8,3.6-0.7,4" />
      <path fill="none" stroke="#115566" stroke-width="2" stroke-linecap="round" stroke-linejoin="round" d="M10,0c0-0.6-0.2-1.8-0.6-3.3c-0.5-2.4-2-3.7-4.4-4c-2.4,0.3-3.8,1.6-4.3,4c-0.6,2.3-0.8,3.6-0.7,4" />
      <path fill="none" stroke="#115566" stroke-width="2" stroke-linecap="round" stroke-linejoin="round" d="M30,0H20c0-0.6-0.2-1.8-0.6-3.3c-0.5-2.4-2-3.7-4.4-4c-2.4,0.3-3.8,1.6-4.3,4c-0.6,2.3-0.8,3.6-0.7,4" />
      <path fill="none" stroke="#115566" stroke-width="2" stroke-linecap="round" stroke-linejoin="round" d=" M10,0 c0.1,0.4,0.1,0.6,0,0.7" />
      <path fill="none" stroke="#115566" stroke-width="2" stroke-linecap="round" stroke-linejoin="round" d=" M0,0  c0.1,0.4,0.1,0.6,0,0.7" />
      <path fill="none" stroke="#115566" stroke-width="2" stroke-linecap="round" stroke-linejoin="round" d=" M-10,0c0.1,0.4,0.1,0.6,0,0.7" />
    </g>
    <g id="WB_RESISTOR">
      <circle xmlns="" opacity="0.01" fill="#ffffff" stroke="#000000" stroke-width="0" cx="0" cy="0" r="14" />
      <polyline fill="none" stroke="#115566" stroke-width="2" stroke-linecap="round" stroke-linejoin="round" points="30,0 20,0 15,-6 7.5,6 0,-6 -7.5,6 -15,-6 -20,0 -30,0" />
    </g>
    <g id="WB_LM21212-2">
      <circle xmlns="" opacity="0.01" fill="#ffffff" stroke="#000000" stroke-width="0" cx="0" cy="0" r="14" />
      <rect fill="#EFEFFF" stroke="#000000" stroke-width="2" x="-60" y="-140" width="120" height="280" />
      <line fill="none" stroke="#000000" stroke-width="2" stroke-linejoin="round" x1="-70" y1="-120" x2="-60" y2="-120" />
      <line fill="none" stroke="#000000" stroke-width="2" stroke-linejoin="round" x1="-70" y1="-90" x2="-60" y2="-90" />
      <line fill="none" stroke="#000000" stroke-width="2" stroke-linejoin="round" x1="-70" y1="-40" x2="-60" y2="-40" />
      <line fill="none" stroke="#000000" stroke-width="2" stroke-linejoin="round" x1="-70" y1="20" x2="-60" y2="20" />
      <line fill="none" stroke="#000000" stroke-width="2" stroke-linejoin="round" x1="-70" y1="90" x2="-60" y2="90" />
      <line fill="none" stroke="#000000" stroke-width="2" stroke-linejoin="round" x1="60" y1="-120" x2="70" y2="-120" />
      <line fill="none" stroke="#000000" stroke-width="2" stroke-linejoin="round" x1="60" y1="-20" x2="70" y2="-20" />
      <line fill="none" stroke="#000000" stroke-width="2" stroke-linejoin="round" x1="60" y1="30" x2="70" y2="30" />
      <line fill="none" stroke="#000000" stroke-width="2" stroke-linejoin="round" x1="60" y1="80" x2="70" y2="80" />
      <line fill="none" stroke="#000000" stroke-width="2" stroke-linejoin="round" x1="60" y1="100" x2="70" y2="100" />
      <line fill="none" stroke="#000000" stroke-width="2" stroke-linejoin="round" x1="60" y1="120" x2="70" y2="120" />
      <text x="0" y="-60" style="font-family:Verdana;font-size:16;font-weight:bold;text-anchor:middle;">LM21212-2</text>
      <text x="-57" y="-116" style="font-family:Verdana;font-size:11;text-anchor:start;">PVin</text>
      <text x="-57" y="-86" style="font-family:Verdana;font-size:11;text-anchor:start;">EN</text>
      <text x="-57" y="-36" style="font-family:Verdana;font-size:11;text-anchor:start;">AVin</text>
      <text x="-57" y="24" style="font-family:Verdana;font-size:11;text-anchor:start;">SS/TRACK</text>
      <text x="-57" y="94" style="font-family:Verdana;font-size:11;text-anchor:start;">FADJ</text>
      <text x="57" y="-116" style="font-family:Verdana;font-size:11;text-anchor:end;">SW</text>
      <text x="57" y="-16" style="font-family:Verdana;font-size:11;text-anchor:end;">FB</text>
      <text x="57" y="34" style="font-family:Verdana;font-size:11;text-anchor:end;">COMP</text>
      <text x="57" y="84" style="font-family:Verdana;font-size:11;text-anchor:end;">PGOOD</text>
      <text x="57" y="104" style="font-family:Verdana;font-size:11;text-anchor:end;">AGND</text>
      <text x="57" y="124" style="font-family:Verdana;font-size:11;text-anchor:end;">PGND</text>
    </g>
    <g id="WB_VOLTAGE_PROBE">
      <circle xmlns="" opacity="0.01" fill="#ffffff" stroke="#000000" stroke-width="0" cx="0" cy="0" r="14" />
      <rect stroke-width="1" width="20" stroke="#CC0000" x="-10" height="19.5" y="-30" fill="#CC0000" fill-opacity="0.01" />
      <polyline stroke="#CC0000" points="7,-27 4,-22 3,-26 0,-18 -1,-22 -5,-14  " stroke-linejoin="round" fill="none" stroke-width="2" stroke-linecap="round" />
      <line y1="0" x2="0" stroke="#CC0000" x1="0" fill="none" stroke-width="2" y2="-10" />
    </g>
    <g id="WB_PRIMITIVE_CAPACITOR">
      <circle xmlns="" opacity="0.01" fill="#ffffff" stroke="#000000" stroke-width="0" cx="0" cy="0" r="14" />
      <line y1="0" x2="20" stroke="#CC0000" x1="30" fill="none" stroke-width="2" y2="0" />
      <line y1="0" x2="-20" stroke="#CC0000" x1="-30" fill="none" stroke-width="2" y2="0" />
      <polyline stroke="#CC0000" points="3,12 3,-12  " stroke-linejoin="round" fill="none" stroke-width="2" stroke-linecap="round" />
      <polyline stroke="#CC0000" points="-20,0 -3,0  " stroke-linejoin="round" fill="none" stroke-width="2" stroke-linecap="round" />
      <polyline stroke="#CC0000" points="3,0 20,0  " stroke-linejoin="round" fill="none" stroke-width="2" stroke-linecap="round" />
      <polyline stroke="#CC0000" points="-3,12 -3,-12  " stroke-linejoin="round" fill="none" stroke-width="2" stroke-linecap="round" />
    </g>
    <g id="WB_LOAD_RESISTOR">
      <circle xmlns="" opacity="0.01" fill="#ffffff" stroke="#000000" stroke-width="0" cx="0" cy="0" r="14" />
      <polyline fill="none" stroke="#CC0000" stroke-width="2" stroke-linecap="round" stroke-linejoin="round" points="30,0 20,0 15,-6 7.5,6 0,-6 -7.5,6 -15,-6 -20,0 -30,0" />
    </g>
    <g id="WB_CURRENT_LOAD">
      <circle xmlns="" opacity="0.01" fill="#ffffff" stroke="#000000" stroke-width="0" cx="0" cy="0" r="14" />
      <path fill="none" stroke="#CC0000" stroke-width="2" stroke-linecap="round" stroke-linejoin="round" d="M-15,0c 0.1, 4.2, 1.6, 7.7, 4.4, 10.6c 2.8, 2.8, 6.4, 4.3, 10.6, 4.4c 4.3-0.1, 7.8-1.6, 10.6 -4.4c 2.9-2.9, 4.3-6.4, 4.4-10.6" />
      <path fill="none" stroke="#CC0000" stroke-width="2" stroke-linecap="round" stroke-linejoin="round" d="M15,0c -0.1,-4.2,-1.6,-7.7,-4.4,-10.6c-2.8,-2.8,-6.4,-4.3,-10.6,-4.4c-4.3,0.1 -7.8,1.6 -10.6,4.4c-2.9,2.9 -4.3,6.4 -4.4,10.6" />
      <line fill="none" stroke="#CC0000" stroke-width="2" x1="30" y1="0" x2="15" y2="0" />
      <line fill="none" stroke="#CC0000" stroke-width="2" x1="-15" y1="0" x2="-30" y2="0" />
      <line fill="none" stroke="#CC0000" stroke-width="2" stroke-linecap="round" stroke-linejoin="round" x1="3" y1="7" x2="12" y2="0" />
      <line fill="none" stroke="#CC0000" stroke-width="2" stroke-linecap="round" stroke-linejoin="round" x1="3" y1="-7" x2="12" y2="0" />
      <line fill="none" stroke="#CC0000" stroke-width="2" stroke-linecap="round" stroke-linejoin="round" x1="12" y1="0" x2="-12" y2="0" />
    </g>
  </defs>
  <use id="Cc1" class="comp" xlink:href="#WB_CAPACITOR" x="710.0" y="260.0" cap="750pF" partNo="C0603C751K5GACTU" manufacturer="Kemet" thermalId="0603" esr="0Ohm" />
  <text for="Cc1" x="690.0" y="245.0" style="font-family:arial;font-size:13px;stroke-width:0.5;stroke:#115566;fill:#115566;">Cc1</text>
  <text for="Cc1" x="690.0" y="280.0" style="font-family:arial;font-size:10px;stroke-width:0.1;stroke:#CC0000;fill:#CC0000;">750pF</text>
  <text for="Cc1" x="690.0" y="290.0" style="font-family:arial;font-size:10px;stroke-width:0.1;stroke:#CC0000;fill:#CC0000;">0Ohm</text>
  <use id="Cc2" class="comp" xlink:href="#WB_CAPACITOR" x="740.0" y="310.0" transform="rotate(-180, 740.0, 310.0)" cap="13pF" partNo="CL21C130JBANNNC" thermalId="0805" esr="0Ohm" manufacturer="Samsung Electro-Mechanics" />
  <text for="Cc2" x="720.0" y="295.0" style="font-family:arial;font-size:13px;stroke-width:0.5;stroke:#115566;fill:#115566;">Cc2</text>
  <text for="Cc2" x="720.0" y="330.0" style="font-family:arial;font-size:10px;stroke-width:0.1;stroke:#CC0000;fill:#CC0000;">13pF</text>
  <text for="Cc2" x="720.0" y="340.0" style="font-family:arial;font-size:10px;stroke-width:0.1;stroke:#CC0000;fill:#CC0000;">0Ohm</text>
  <use id="Cc3" class="comp" xlink:href="#WB_CAPACITOR" x="920.0" y="150.0" transform="rotate(-90, 920.0, 150.0)" cap="390pF" partNo="GRM1555C1H391JA01J" thermalId="0402" esr="0Ohm" manufacturer="MuRata" />
  <text for="Cc3" x="935.0" y="150.0" style="font-family:arial;font-size:13px;stroke-width:0.5;stroke:#115566;fill:#115566;">Cc3</text>
  <text for="Cc3" x="935.0" y="160.0" style="font-family:arial;font-size:10px;stroke-width:0.1;stroke:#CC0000;fill:#CC0000;">390pF</text>
  <text for="Cc3" x="935.0" y="170.0" style="font-family:arial;font-size:10px;stroke-width:0.1;stroke:#CC0000;fill:#CC0000;">0Ohm</text>
  <use id="Cf" class="comp" xlink:href="#WB_CAPACITOR" x="300.0" y="240.0" transform="rotate(-270, 300.0, 240.0)" cap="100nF" partNo="GRM155R61C104KA88D" thermalId="0402" esr="1mOhm" manufacturer="MuRata" />
  <text for="Cf" x="315.0" y="240.0" style="font-family:arial;font-size:13px;stroke-width:0.5;stroke:#115566;fill:#115566;">Cf</text>
  <text for="Cf" x="315.0" y="250.0" style="font-family:arial;font-size:10px;stroke-width:0.1;stroke:#CC0000;fill:#CC0000;">100nF</text>
  <text for="Cf" x="315.0" y="260.0" style="font-family:arial;font-size:10px;stroke-width:0.1;stroke:#CC0000;fill:#CC0000;">1mOhm</text>
  <use id="Cin" class="comp" xlink:href="#WB_CAPACITOR" x="180.0" y="210.0" transform="rotate(-90, 180.0, 210.0)" cap="33uF" partNo="C2012X5R1A336M125AC" manufacturer="TDK" thermalId="0805" esr="1.694mOhm" />
  <text for="Cin" x="195.0" y="210.0" style="font-family:arial;font-size:13px;stroke-width:0.5;stroke:#115566;fill:#115566;">Cin</text>
  <text for="Cin" x="195.0" y="220.0" style="font-family:arial;font-size:10px;stroke-width:0.1;stroke:#CC0000;fill:#CC0000;">33uF</text>
  <text for="Cin" x="195.0" y="230.0" style="font-family:arial;font-size:10px;stroke-width:0.1;stroke:#CC0000;fill:#CC0000;">1.694mOhm</text>
  <text for="Cin" x="195.0" y="240.0" style="font-family:arial;font-size:10px;stroke-width:0.1;stroke:#CC0000;fill:#CC0000;">Qty=3</text>
  <use id="Cout" class="comp" xlink:href="#WB_CAPACITOR" x="1010.0" y="200.0" transform="rotate(-90, 1010.0, 200.0)" cap="47uF" partNo="GRM32ER60J476ME20L" thermalId="1210_270" esr="1mOhm" manufacturer="MuRata" />
  <text for="Cout" x="1025.0" y="200.0" style="font-family:arial;font-size:13px;stroke-width:0.5;stroke:#115566;fill:#115566;">Cout</text>
  <text for="Cout" x="1025.0" y="210.0" style="font-family:arial;font-size:10px;stroke-width:0.1;stroke:#CC0000;fill:#CC0000;">47uF</text>
  <text for="Cout" x="1025.0" y="220.0" style="font-family:arial;font-size:10px;stroke-width:0.1;stroke:#CC0000;fill:#CC0000;">1mOhm</text>
  <use id="GND" class="other" xlink:href="#WB_GND" x="520.0" y="520.0" />
  <use id="GND7" class="other" xlink:href="#WB_GND" x="300.0" y="280.0" />
  <use id="L1" class="comp" xlink:href="#WB_INDUCTOR" x="780.0" y="110.0" partNo="XAL5030-601MEB" manufacturer="Coilcraft" thermalId="XAL5030" l="600nH" dcr="4.1mOhm" />
  <text for="L1" x="760.0" y="95.0" style="font-family:arial;font-size:13px;stroke-width:0.5;stroke:#115566;fill:#115566;">L1</text>
  <text for="L1" x="760.0" y="130.0" style="font-family:arial;font-size:10px;stroke-width:0.1;stroke:#CC0000;fill:#CC0000;">600nH</text>
  <text for="L1" x="760.0" y="140.0" style="font-family:arial;font-size:10px;stroke-width:0.1;stroke:#CC0000;fill:#CC0000;">4.1mOhm</text>
  <use id="Rc1" class="comp" xlink:href="#WB_RESISTOR" x="770.0" y="260.0" transform="rotate(-180, 770.0, 260.0)" partNo="ERJ-6ENF6041V" manufacturer="Panasonic" thermalId="0805" resistance="6.04kOhm" />
  <text for="Rc1" x="750.0" y="245.0" style="font-family:arial;font-size:13px;stroke-width:0.5;stroke:#115566;fill:#115566;">Rc1</text>
  <text for="Rc1" x="750.0" y="280.0" style="font-family:arial;font-size:10px;stroke-width:0.1;stroke:#CC0000;fill:#CC0000;">6.04kOhm</text>
  <use id="Rc2" class="comp" xlink:href="#WB_RESISTOR" x="920.0" y="220.0" transform="rotate(-270, 920.0, 220.0)" partNo="CRCW040293R1FKED" thermalId="0402" resistance="93.1Ohm" manufacturer="Vishay-Dale" />
  <text for="Rc2" x="935.0" y="220.0" style="font-family:arial;font-size:13px;stroke-width:0.5;stroke:#115566;fill:#115566;">Rc2</text>
  <text for="Rc2" x="935.0" y="230.0" style="font-family:arial;font-size:10px;stroke-width:0.1;stroke:#CC0000;fill:#CC0000;">93.1Ohm</text>
  <use id="Rf" class="comp" xlink:href="#WB_RESISTOR" x="300.0" y="150.0" transform="rotate(-270, 300.0, 150.0)" partNo="CRCW040210R5FKED" thermalId="0402" resistance="10.5Ohm" manufacturer="Vishay-Dale" />
  <text for="Rf" x="315.0" y="150.0" style="font-family:arial;font-size:13px;stroke-width:0.5;stroke:#115566;fill:#115566;">Rf</text>
  <text for="Rf" x="315.0" y="160.0" style="font-family:arial;font-size:10px;stroke-width:0.1;stroke:#CC0000;fill:#CC0000;">10.5Ohm</text>
  <use id="Rfadj" class="comp" xlink:href="#WB_RESISTOR" x="420.0" y="410.0" transform="rotate(-90, 420.0, 410.0)" partNo="CRCW040246K4FKED" thermalId="0402" resistance="46.4kOhm" manufacturer="Vishay-Dale" />
  <text for="Rfadj" x="435.0" y="410.0" style="font-family:arial;font-size:13px;stroke-width:0.5;stroke:#115566;fill:#115566;">Rfadj</text>
  <text for="Rfadj" x="435.0" y="420.0" style="font-family:arial;font-size:10px;stroke-width:0.1;stroke:#CC0000;fill:#CC0000;">46.4kOhm</text>
  <use id="Rfbb" class="comp" xlink:href="#WB_RESISTOR" x="860.0" y="410.0" transform="rotate(-90, 860.0, 410.0)" partNo="CRCW04022K67FKED" thermalId="0402" resistance="2.67kOhm" manufacturer="Vishay-Dale" />
  <text for="Rfbb" x="875.0" y="410.0" style="font-family:arial;font-size:13px;stroke-width:0.5;stroke:#115566;fill:#115566;">Rfbb</text>
  <text for="Rfbb" x="875.0" y="420.0" style="font-family:arial;font-size:10px;stroke-width:0.1;stroke:#CC0000;fill:#CC0000;">2.67kOhm</text>
  <use id="Rfbt" class="comp" xlink:href="#WB_RESISTOR" x="860.0" y="160.0" transform="rotate(-90, 860.0, 160.0)" partNo="RR1220P-123-D" thermalId="0805" resistance="12kOhm" manufacturer="Susumu Co Ltd" />
  <text for="Rfbt" x="875.0" y="160.0" style="font-family:arial;font-size:13px;stroke-width:0.5;stroke:#115566;fill:#115566;">Rfbt</text>
  <text for="Rfbt" x="875.0" y="170.0" style="font-family:arial;font-size:10px;stroke-width:0.1;stroke:#CC0000;fill:#CC0000;">12kOhm</text>
  <use id="Rpgood" class="comp" xlink:href="#WB_RESISTOR" x="640.0" y="370.0" transform="rotate(-90, 640.0, 370.0)" partNo="RC0201FR-07105KL" thermalId="0201" resistance="105kOhm" manufacturer="Yageo" />
  <text for="Rpgood" x="655.0" y="370.0" style="font-family:arial;font-size:13px;stroke-width:0.5;stroke:#115566;fill:#115566;">Rpgood</text>
  <text for="Rpgood" x="655.0" y="380.0" style="font-family:arial;font-size:10px;stroke-width:0.1;stroke:#CC0000;fill:#CC0000;">105kOhm</text>
  <use id="U1" class="comp" xlink:href="#WB_LM21212-2" x="490.0" y="230.0" />
  <text for="U1" x="470.0" y="230.0" style="font-family:arial;font-size:13px;stroke-width:0.5;stroke:#115566;fill:#115566;">U1</text>
  <use id="Vbatt" class="other" xlink:href="#WB_PRIMITIVE_BATTERY" x="640.0" y="450.0" transform="rotate(-270, 640.0, 450.0)" />
  <text for="Vbatt" x="655.0" y="450.0" style="font-family:arial;font-size:13px;stroke-width:0.5;stroke:#CC0000;fill:#CC0000;">Vbatt</text>
  <use id="Vin" class="other" xlink:href="#WB_BATTERY" x="100.0" y="190.0" transform="rotate(-270, 100.0, 190.0)" />
  <text for="Vin" x="115.0" y="190.0" style="font-family:arial;font-size:13px;stroke-width:0.5;stroke:#CC0000;fill:#CC0000;">Vin</text>
  <use id="Iout" class="other" xlink:href="#WB_CURRENT_LOAD" x="1100.0" y="250.0" transform="rotate(-270, 1100.0, 250.0)" />
  <text for="Iout" x="1115.0" y="250.0" style="font-family:arial;font-size:13px;stroke-width:0.5;stroke:#CC0000;fill:#CC0000;">Iout</text>
  <line x1="180.0" y1="240.0" x2="180.0" y2="510.0" stroke="#000000" stroke-width="2" fill="none" />
  <line x1="300.0" y1="180.0" x2="300.0" y2="210.0" stroke="#000000" stroke-width="2" fill="none" />
  <line x1="300.0" y1="110.0" x2="300.0" y2="120.0" stroke="#000000" stroke-width="2" fill="none" />
  <line x1="370.0" y1="250.0" x2="420.0" y2="250.0" stroke="#000000" stroke-width="2" fill="none" />
  <line x1="380.0" y1="140.0" x2="380.0" y2="110.0" stroke="#000000" stroke-width="2" fill="none" />
  <line x1="420.0" y1="440.0" x2="420.0" y2="510.0" stroke="#000000" stroke-width="2" fill="none" />
  <line x1="420.0" y1="320.0" x2="420.0" y2="380.0" stroke="#000000" stroke-width="2" fill="none" />
  <line x1="420.0" y1="190.0" x2="300.0" y2="190.0" stroke="#000000" stroke-width="2" fill="none" />
  <line x1="420.0" y1="140.0" x2="380.0" y2="140.0" stroke="#000000" stroke-width="2" fill="none" />
  <line x1="560.0" y1="350.0" x2="590.0" y2="350.0" stroke="#000000" stroke-width="2" fill="none" />
  <line x1="560.0" y1="330.0" x2="590.0" y2="330.0" stroke="#000000" stroke-width="2" fill="none" />
  <line x1="560.0" y1="310.0" x2="640.0" y2="310.0" stroke="#000000" stroke-width="2" fill="none" />
  <line x1="560.0" y1="260.0" x2="680.0" y2="260.0" stroke="#000000" stroke-width="2" fill="none" />
  <line x1="590.0" y1="330.0" x2="590.0" y2="510.0" stroke="#000000" stroke-width="2" fill="none" />
  <line x1="640.0" y1="480.0" x2="640.0" y2="510.0" stroke="#000000" stroke-width="2" fill="none" />
  <line x1="640.0" y1="400.0" x2="640.0" y2="420.0" stroke="#000000" stroke-width="2" fill="none" />
  <line x1="640.0" y1="310.0" x2="640.0" y2="340.0" stroke="#000000" stroke-width="2" fill="none" />
  <line x1="680.0" y1="310.0" x2="710.0" y2="310.0" stroke="#000000" stroke-width="2" fill="none" />
  <line x1="680.0" y1="260.0" x2="680.0" y2="310.0" stroke="#000000" stroke-width="2" fill="none" />
  <line x1="770.0" y1="310.0" x2="820.0" y2="310.0" stroke="#000000" stroke-width="2" fill="none" />
  <line x1="800.0" y1="260.0" x2="860.0" y2="260.0" stroke="#000000" stroke-width="2" fill="none" />
  <line x1="560.0" y1="210.0" x2="860.0" y2="210.0" stroke="#000000" stroke-width="2" fill="none" />
  <line x1="820.0" y1="310.0" x2="820.0" y2="260.0" stroke="#000000" stroke-width="2" fill="none" />
  <line x1="860.0" y1="510.0" x2="860.0" y2="440.0" stroke="#000000" stroke-width="2" fill="none" />
  <line x1="860.0" y1="190.0" x2="860.0" y2="380.0" stroke="#000000" stroke-width="2" fill="none" />
  <line x1="860.0" y1="110.0" x2="860.0" y2="130.0" stroke="#000000" stroke-width="2" fill="none" />
  <line x1="920.0" y1="280.0" x2="860.0" y2="280.0" stroke="#000000" stroke-width="2" fill="none" />
  <line x1="920.0" y1="250.0" x2="920.0" y2="280.0" stroke="#000000" stroke-width="2" fill="none" />
  <line x1="920.0" y1="190.0" x2="920.0" y2="180.0" stroke="#000000" stroke-width="2" fill="none" />
  <line x1="920.0" y1="120.0" x2="860.0" y2="120.0" stroke="#000000" stroke-width="2" fill="none" />
  <line x1="1010.0" y1="510.0" x2="180.0" y2="510.0" stroke="#000000" stroke-width="2" fill="none" />
  <line x1="1010.0" y1="230.0" x2="1010.0" y2="510.0" stroke="#000000" stroke-width="2" fill="none" />
  <line x1="180.0" y1="180.0" x2="180.0" y2="110.0" stroke="#000000" stroke-width="2" fill="none" />
  <line x1="1010.0" y1="170.0" x2="1010.0" y2="110.0" stroke="#000000" stroke-width="2" fill="none" />
  <line x1="560.0" y1="110.0" x2="750.0" y2="110.0" stroke="#000000" stroke-width="2" fill="none" />
  <line x1="180.0" y1="150.0" x2="180.0" y2="120.0" stroke="#000000" stroke-width="2" fill="none" />
  <line x1="1010.0" y1="160.0" x2="1010.0" y2="130.0" stroke="#000000" stroke-width="2" fill="none" />
  <line x1="680.0" y1="110.0" x2="710.0" y2="110.0" stroke="#000000" stroke-width="2" fill="none" />
  <line x1="100.0" y1="110.0" x2="420.0" y2="110.0" stroke="#000000" stroke-width="2" fill="none" />
  <line x1="810.0" y1="110.0" x2="1100.0" y2="110.0" stroke="#000000" stroke-width="2" fill="none" />
  <line x1="1010.0" y1="330.0" x2="1100.0" y2="330.0" stroke="#000000" stroke-width="2" fill="none" />
  <line x1="100.0" y1="330.0" x2="180.0" y2="330.0" stroke="#000000" stroke-width="2" fill="none" />
  <line x1="180.0" y1="150.0" x2="180.0" y2="120.0" stroke="#000000" stroke-width="2" fill="none" />
  <line x1="1010.0" y1="160.0" x2="1010.0" y2="130.0" stroke="#000000" stroke-width="2" fill="none" />
  <line x1="680.0" y1="110.0" x2="710.0" y2="110.0" stroke="#000000" stroke-width="2" fill="none" />
  <line x1="100.0" y1="110.0" x2="110.0" y2="110.0" stroke="#000000" stroke-width="2" fill="none" />
  <line x1="1090.0" y1="110.0" x2="1100.0" y2="110.0" stroke="#000000" stroke-width="2" fill="none" />
  <line x1="1090.0" y1="330.0" x2="1100.0" y2="330.0" stroke="#000000" stroke-width="2" fill="none" />
  <line x1="100.0" y1="330.0" x2="110.0" y2="330.0" stroke="#000000" stroke-width="2" fill="none" />
  <line x1="180.0" y1="150.0" x2="180.0" y2="120.0" stroke="#000000" stroke-width="2" fill="none" />
  <line x1="1010.0" y1="160.0" x2="1010.0" y2="130.0" stroke="#000000" stroke-width="2" fill="none" />
  <line x1="680.0" y1="110.0" x2="710.0" y2="110.0" stroke="#000000" stroke-width="2" fill="none" />
  <line x1="100.0" y1="110.0" x2="110.0" y2="110.0" stroke="#000000" stroke-width="2" fill="none" />
  <line x1="1090.0" y1="110.0" x2="1100.0" y2="110.0" stroke="#000000" stroke-width="2" fill="none" />
  <line x1="1090.0" y1="330.0" x2="1100.0" y2="330.0" stroke="#000000" stroke-width="2" fill="none" />
  <line x1="100.0" y1="330.0" x2="110.0" y2="330.0" stroke="#000000" stroke-width="2" fill="none" />
  <line x1="180.0" y1="150.0" x2="180.0" y2="120.0" stroke="#000000" stroke-width="2" fill="none" />
  <line x1="1010.0" y1="160.0" x2="1010.0" y2="130.0" stroke="#000000" stroke-width="2" fill="none" />
  <line x1="680.0" y1="110.0" x2="710.0" y2="110.0" stroke="#000000" stroke-width="2" fill="none" />
  <line x1="100.0" y1="110.0" x2="110.0" y2="110.0" stroke="#000000" stroke-width="2" fill="none" />
  <line x1="1090.0" y1="110.0" x2="1100.0" y2="110.0" stroke="#000000" stroke-width="2" fill="none" />
  <line x1="1090.0" y1="330.0" x2="1100.0" y2="330.0" stroke="#000000" stroke-width="2" fill="none" />
  <line x1="100.0" y1="330.0" x2="110.0" y2="330.0" stroke="#000000" stroke-width="2" fill="none" />
  <line x1="180.0" y1="150.0" x2="180.0" y2="120.0" stroke="#000000" stroke-width="2" fill="none" />
  <line x1="1010.0" y1="160.0" x2="1010.0" y2="130.0" stroke="#000000" stroke-width="2" fill="none" />
  <line x1="680.0" y1="110.0" x2="710.0" y2="110.0" stroke="#000000" stroke-width="2" fill="none" />
  <line x1="100.0" y1="110.0" x2="110.0" y2="110.0" stroke="#000000" stroke-width="2" fill="none" />
  <line x1="1090.0" y1="110.0" x2="1100.0" y2="110.0" stroke="#000000" stroke-width="2" fill="none" />
  <line x1="1090.0" y1="330.0" x2="1100.0" y2="330.0" stroke="#000000" stroke-width="2" fill="none" />
  <line x1="100.0" y1="330.0" x2="110.0" y2="330.0" stroke="#000000" stroke-width="2" fill="none" />
  <line x1="100.0" y1="160.0" x2="100.0" y2="110.0" stroke="#000000" stroke-width="2" fill="none" />
  <line x1="100.0" y1="330.0" x2="100.0" y2="220.0" stroke="#000000" stroke-width="2" fill="none" />
  <line x1="100.0" y1="120.0" x2="100.0" y2="110.0" stroke="#000000" stroke-width="2" fill="none" />
  <line x1="100.0" y1="330.0" x2="100.0" y2="320.0" stroke="#000000" stroke-width="2" fill="none" />
  <line x1="100.0" y1="120.0" x2="100.0" y2="110.0" stroke="#000000" stroke-width="2" fill="none" />
  <line x1="100.0" y1="330.0" x2="100.0" y2="320.0" stroke="#000000" stroke-width="2" fill="none" />
  <line x1="100.0" y1="120.0" x2="100.0" y2="110.0" stroke="#000000" stroke-width="2" fill="none" />
  <line x1="100.0" y1="330.0" x2="100.0" y2="320.0" stroke="#000000" stroke-width="2" fill="none" />
  <line x1="100.0" y1="120.0" x2="100.0" y2="110.0" stroke="#000000" stroke-width="2" fill="none" />
  <line x1="100.0" y1="330.0" x2="100.0" y2="320.0" stroke="#000000" stroke-width="2" fill="none" />
  <line x1="1100.0" y1="220.0" x2="1100.0" y2="110.0" stroke="#000000" stroke-width="2" fill="none" />
  <line x1="1100.0" y1="330.0" x2="1100.0" y2="280.0" stroke="#000000" stroke-width="2" fill="none" />
  <line x1="1100.0" y1="120.0" x2="1100.0" y2="110.0" stroke="#000000" stroke-width="2" fill="none" />
  <line x1="1100.0" y1="330.0" x2="1100.0" y2="320.0" stroke="#000000" stroke-width="2" fill="none" />
  <line x1="1100.0" y1="120.0" x2="1100.0" y2="110.0" stroke="#000000" stroke-width="2" fill="none" />
  <line x1="1100.0" y1="330.0" x2="1100.0" y2="320.0" stroke="#000000" stroke-width="2" fill="none" />
  <line x1="1100.0" y1="120.0" x2="1100.0" y2="110.0" stroke="#000000" stroke-width="2" fill="none" />
  <line x1="1100.0" y1="330.0" x2="1100.0" y2="320.0" stroke="#000000" stroke-width="2" fill="none" />
  <line x1="1100.0" y1="120.0" x2="1100.0" y2="110.0" stroke="#000000" stroke-width="2" fill="none" />
  <line x1="1100.0" y1="330.0" x2="1100.0" y2="320.0" stroke="#000000" stroke-width="2" fill="none" />
  <line x1="740.0" y1="260.0" x2="740.0" y2="260.0" stroke="#000000" stroke-width="2" fill="none" />
  <line x1="300.0" y1="270.0" x2="300.0" y2="270.0" stroke="#000000" stroke-width="2" fill="none" />
  <circle cx="180.0" cy="330.0" r="5" stroke="#000000" stroke-width="0" fill="#000000" />
  <circle cx="300.0" cy="190.0" r="5" stroke="#000000" stroke-width="0" fill="#000000" />
  <circle cx="590.0" cy="350.0" r="5" stroke="#000000" stroke-width="0" fill="#000000" />
  <circle cx="820.0" cy="260.0" r="5" stroke="#000000" stroke-width="0" fill="#000000" />
  <circle cx="860.0" cy="260.0" r="5" stroke="#000000" stroke-width="0" fill="#000000" />
  <circle cx="860.0" cy="210.0" r="5" stroke="#000000" stroke-width="0" fill="#000000" />
  <circle cx="860.0" cy="280.0" r="5" stroke="#000000" stroke-width="0" fill="#000000" />
  <circle cx="860.0" cy="120.0" r="5" stroke="#000000" stroke-width="0" fill="#000000" />
  <circle cx="420.0" cy="510.0" r="5" stroke="#000000" stroke-width="0" fill="#000000" />
  <circle cx="590.0" cy="510.0" r="5" stroke="#000000" stroke-width="0" fill="#000000" />
  <circle cx="640.0" cy="510.0" r="5" stroke="#000000" stroke-width="0" fill="#000000" />
  <circle cx="860.0" cy="510.0" r="5" stroke="#000000" stroke-width="0" fill="#000000" />
  <circle cx="1010.0" cy="330.0" r="5" stroke="#000000" stroke-width="0" fill="#000000" />
  <circle cx="300.0" cy="110.0" r="5" stroke="#000000" stroke-width="0" fill="#000000" />
  <circle cx="380.0" cy="110.0" r="5" stroke="#000000" stroke-width="0" fill="#000000" />
  <circle cx="180.0" cy="110.0" r="5" stroke="#000000" stroke-width="0" fill="#000000" />
  <circle cx="860.0" cy="110.0" r="5" stroke="#000000" stroke-width="0" fill="#000000" />
  <circle cx="1010.0" cy="110.0" r="5" stroke="#000000" stroke-width="0" fill="#000000" />
  <circle cx="680.0" cy="260.0" r="5" stroke="#000000" stroke-width="0" fill="#000000" />
  <circle cx="520.0" cy="510.0" r="5" stroke="#000000" stroke-width="0" fill="#000000" />
</svg>

