%
M48
M72
T01C0.01200
T02C0.03150
T03C0.03200
T04C0.03500
T05C0.03543
T06C0.04000
T07C0.04331
T08C0.06200
T09C0.06299
T10C0.12598
T11C0.12800
%
T01
X96404Y91664
X104529Y89789
X129529Y102914
X118904Y119164
X127029Y124789
X127029Y130414
X120779Y132289
X130154Y138539
X142654Y144164
X146404Y146664
X148904Y147914
X148904Y144789
X147654Y152289
X140779Y156664
X145779Y166664
X147654Y172914
X147654Y182289
X147654Y185414
X161404Y177914
X161404Y170414
X161404Y161664
X169529Y161664
X161404Y156664
X161404Y151664
X161404Y144789
X161404Y141664
X161404Y138539
X161404Y132289
X161404Y119789
X161404Y113539
X170154Y114164
X143904Y116039
X176404Y140414
X178904Y152289
X189529Y153539
X188904Y156664
X178279Y170414
X172654Y176039
X175154Y191664
X178279Y197914
X162654Y211664
X158904Y215414
X155779Y204164
X152654Y204164
X133904Y215414
X133904Y220414
X115779Y215414
X115779Y211039
X110154Y214789
X97654Y218539
X97029Y212914
X91404Y226664
X119529Y240414
X121404Y247914
X116404Y251039
X151404Y282914
X160779Y291664
X168904Y291664
X174529Y299789
X155154Y312289
X150154Y321664
X147029Y321664
X145154Y334164
X164529Y339164
X155154Y352914
X146404Y371664
X157029Y376039
X198279Y369789
X203904Y371039
X230154Y379789
X244529Y382914
X251404Y379164
X253279Y374789
X263904Y379164
X265154Y372914
X273279Y366039
X284529Y387289
X234529Y359164
X213904Y324789
X213904Y319789
X204529Y325414
X192654Y321664
X182654Y321664
X172654Y321664
X167654Y325414
X162654Y321664
X195779Y297914
X208279Y301664
X209529Y293539
X211404Y291664
X226404Y291664
X227654Y317289
X250779Y314789
X268904Y310414
X275779Y311664
X273279Y295414
X273904Y291664
X277029Y291664
X270779Y291664
X266404Y291664
X263279Y291664
X258904Y285414
X281404Y279164
X278279Y259164
X287029Y259164
X268904Y253539
X267654Y247914
X266404Y259164
X260779Y258539
X278904Y235414
X280779Y233539
X283904Y232914
X290154Y229789
X295154Y227914
X295154Y235414
X309529Y242914
X315154Y232289
X328904Y239164
X342029Y231664
X320154Y214789
X332029Y206664
X330154Y204789
X325154Y201039
X320779Y204789
X314529Y197289
X309529Y196664
X309529Y191664
X304529Y193539
X295779Y189164
X293904Y191039
X292654Y197289
X291404Y199789
X283904Y202914
X289529Y211664
X289529Y221039
X279529Y216664
X269529Y213539
X264529Y214164
X249529Y217914
X243279Y217914
X233279Y233539
X222029Y251039
X221404Y254789
X218279Y259164
X212029Y259164
X232029Y259164
X172029Y259164
X165779Y254164
X162029Y250414
X159529Y259164
X106404Y198539
X122029Y184164
X118904Y174789
X120779Y169789
X122029Y165414
X125779Y165414
X106404Y162289
X103904Y163539
X98904Y169789
X106404Y172914
X106404Y176039
X106404Y179164
X103279Y178539
X100154Y179164
X106404Y153539
X103904Y151664
X91404Y141664
X88904Y144164
X88904Y151664
X77654Y132914
X86404Y124789
X72654Y122289
X67654Y102289
X65154Y96664
X46404Y111664
X44529Y131039
X63904Y153539
X23904Y153539
X37654Y204164
X61404Y239789
X60779Y256664
X70779Y269789
X70779Y279164
X58904Y274164
X55154Y289789
X42654Y290414
X42654Y279164
X37029Y267289
X28279Y306039
X103904Y321664
X112029Y326664
X218904Y201664
X222029Y201664
X224529Y194789
X217654Y191664
X232029Y183539
X232029Y180414
X222654Y175414
X220779Y173539
X214529Y176039
X211404Y176039
X206404Y168539
X227654Y166039
X243279Y161664
X248279Y159789
X250779Y152289
X243279Y151664
X257029Y147914
X261404Y150414
X259529Y152289
X263904Y151664
X263904Y148539
X273279Y149789
X273279Y146664
X278279Y144164
X281404Y142914
X283279Y139164
X278279Y137289
X273904Y139164
X273279Y136039
X270154Y127914
X263904Y136039
X261404Y139164
X258279Y134164
X255154Y134164
X253279Y137289
X255154Y127914
X258904Y124164
X252654Y122914
X240779Y122914
X227654Y111039
X209529Y123539
X209529Y126664
X195154Y119164
X193279Y137289
X195154Y139164
X247654Y172289
X251404Y172289
X255779Y178539
X253279Y179789
X260154Y172289
X263904Y174789
X263904Y179789
X275154Y180414
X282654Y180414
X285779Y171664
X285779Y168539
X288904Y168539
X290154Y162914
X285779Y162289
X282029Y157914
X290154Y155414
X297654Y155414
X305154Y155414
X305154Y162914
X310154Y168539
X308279Y174164
X304529Y180414
X301404Y180414
X297029Y180414
X297654Y162914
X297654Y147914
X297029Y144164
X298279Y139164
X302029Y135414
X295779Y130414
X292654Y130414
X288904Y130414
X285779Y132289
X283279Y121664
X299529Y116039
X302654Y116039
X303279Y121664
X310779Y116039
X315779Y116039
X320154Y120414
X324529Y126039
X318904Y130414
X315779Y130414
X321404Y136039
X315154Y142289
X322654Y148539
X322654Y154789
X322029Y157914
X318279Y156039
X316404Y157914
X320154Y163539
X332029Y160414
X331404Y154789
X334529Y151664
X338279Y146664
X336404Y144164
X332654Y142289
X331404Y130414
X333279Y120414
X336404Y119164
X326404Y116039
X323904Y103539
X332654Y86664
X318279Y81664
X353279Y91039
X305154Y38539
X282029Y69789
X270779Y101039
X290154Y147914
X305154Y147914
X275779Y169164
X275779Y172289
X273279Y165414
X273279Y157914
X263904Y157914
X258279Y161664
X273279Y189164
X277654Y193539
X267654Y194789
X238279Y194789
X302654Y209789
X306404Y204789
X318904Y189164
X325779Y189164
X329529Y189164
X329529Y186039
X325154Y184789
X320779Y180414
X321404Y175414
X332654Y177289
X332654Y181039
X340779Y177289
X340154Y173539
X353279Y187914
X343904Y196664
X337654Y196664
X335154Y198539
X333279Y196664
X367029Y162289
X367029Y159164
X343904Y154789
X396404Y185414
X418904Y163539
X405779Y159789
X458904Y132289
X457029Y124789
X458904Y99789
X452654Y99789
X452654Y81664
X435779Y234789
X449529Y261039
X449529Y273539
X449529Y286039
X413279Y341039
X434529Y354164
X437654Y370414
X433279Y376664
X424529Y377914
X410154Y382914
X404529Y387289
X384529Y387289
X384529Y367289
X382029Y353539
X380154Y347914
X395154Y234789
X199529Y69789
X194529Y89164
X172654Y85414
X161404Y25414
X102654Y132914
X106404Y135414
T02
X40725Y319182
X19859Y319182
X19859Y347922
X40725Y347922
T03
X420154Y237914
X420154Y227914
X420154Y202914
X420154Y192914
X420154Y182914
X450154Y182914
X450154Y192914
X450154Y202914
X450154Y227914
X450154Y237914
T04
X397654Y54914
X389654Y54914
X381654Y54914
X373654Y54914
X377654Y47914
X385654Y47914
X393654Y47914
X401654Y47914
T05
X32851Y326662
X32851Y340442
T06
X87654Y285414
X100154Y312914
X110154Y312914
X120154Y312914
X130154Y312914
X140154Y312914
X150154Y312914
X160154Y312914
X170154Y312914
X180154Y312914
X190154Y312914
X200154Y312914
X210154Y312914
X220154Y312914
X230154Y312914
X240154Y312914
X240154Y332914
X230154Y332914
X220154Y332914
X210154Y332914
X200154Y332914
X190154Y332914
X180154Y332914
X170154Y332914
X160154Y332914
X150154Y332914
X140154Y332914
X130154Y332914
X120154Y332914
X110154Y332914
X100154Y332914
X127654Y285414
X340154Y312914
X350154Y312914
X360154Y312914
X370154Y312914
X380154Y312914
X390154Y312914
X400154Y312914
X400154Y332914
X390154Y332914
X380154Y332914
X370154Y332914
X360154Y332914
X350154Y332914
X340154Y332914
X450154Y157914
X450154Y147914
X450154Y137914
X450154Y127914
X341554Y58214
X323754Y58214
X323754Y32614
X341554Y32614
X287654Y65414
X287654Y75414
X272654Y65414
X272654Y55414
X262654Y55414
X262654Y65414
X252654Y65414
X252654Y55414
X242654Y55414
X242654Y65414
X232654Y65414
X232654Y55414
X222654Y55414
X222654Y65414
X212654Y65414
X212654Y55414
X202654Y55414
X202654Y65414
X192654Y65414
X192654Y55414
X182654Y55414
X182654Y65414
X37954Y65264
X37954Y83064
X12354Y83064
X12354Y65264
T07
X57628Y78390
T08
X355754Y51414
X419554Y51414
T09
X140305Y78390
T10
X22654Y35414
X292654Y329914
X442654Y329914
X442654Y35414
T11
X412654Y37914
X362654Y37914
M30
