G75*
%MOIN*%
%OFA0B0*%
%FSLAX25Y25*%
%IPPOS*%
%LPD*%
%AMOC8*
5,1,8,0,0,1.08239X$1,22.5*
%
%ADD10C,0.00500*%
%ADD11R,0.07000X0.20000*%
%ADD12OC8,0.06000*%
%ADD13C,0.07400*%
%ADD14C,0.00000*%
%ADD15C,0.05600*%
%ADD16C,0.09300*%
%ADD17C,0.04724*%
%ADD18C,0.04800*%
%ADD19C,0.06000*%
%ADD20C,0.02000*%
%ADD21C,0.00600*%
%ADD22C,0.01200*%
D10*
X0005154Y0017914D02*
X0005154Y0352560D01*
X0135154Y0352560D01*
X0135154Y0411615D01*
X0295154Y0411615D01*
X0295154Y0352560D01*
X0375154Y0352560D01*
X0375154Y0411615D01*
X0455154Y0411615D01*
X0455154Y0352560D01*
X0465154Y0352560D01*
X0465154Y0017914D01*
X0005154Y0017914D01*
D11*
X0145075Y0399193D03*
X0155075Y0399193D03*
X0165075Y0399193D03*
X0175075Y0399193D03*
X0185075Y0399193D03*
X0195075Y0399193D03*
X0205075Y0399193D03*
X0215075Y0399193D03*
X0225075Y0399193D03*
X0235075Y0399193D03*
X0245075Y0399193D03*
X0255075Y0399193D03*
X0265075Y0399193D03*
X0275075Y0399193D03*
X0285075Y0399193D03*
X0385075Y0399193D03*
X0395075Y0399193D03*
X0405075Y0399193D03*
X0415075Y0399193D03*
X0425075Y0399193D03*
X0435075Y0399193D03*
X0445075Y0399193D03*
D12*
X0400154Y0332914D03*
X0390154Y0332914D03*
X0380154Y0332914D03*
X0370154Y0332914D03*
X0360154Y0332914D03*
X0350154Y0332914D03*
X0340154Y0332914D03*
X0340154Y0312914D03*
X0350154Y0312914D03*
X0360154Y0312914D03*
X0370154Y0312914D03*
X0380154Y0312914D03*
X0390154Y0312914D03*
X0400154Y0312914D03*
X0240154Y0312914D03*
X0230154Y0312914D03*
X0220154Y0312914D03*
X0210154Y0312914D03*
X0200154Y0312914D03*
X0190154Y0312914D03*
X0180154Y0312914D03*
X0170154Y0312914D03*
X0160154Y0312914D03*
X0150154Y0312914D03*
X0140154Y0312914D03*
X0130154Y0312914D03*
X0120154Y0312914D03*
X0110154Y0312914D03*
X0100154Y0312914D03*
X0100154Y0332914D03*
X0110154Y0332914D03*
X0120154Y0332914D03*
X0130154Y0332914D03*
X0140154Y0332914D03*
X0150154Y0332914D03*
X0160154Y0332914D03*
X0170154Y0332914D03*
X0180154Y0332914D03*
X0190154Y0332914D03*
X0200154Y0332914D03*
X0210154Y0332914D03*
X0220154Y0332914D03*
X0230154Y0332914D03*
X0240154Y0332914D03*
X0242654Y0065414D03*
X0252654Y0065414D03*
X0262654Y0065414D03*
X0272654Y0065414D03*
X0272654Y0055414D03*
X0262654Y0055414D03*
X0252654Y0055414D03*
X0242654Y0055414D03*
X0232654Y0055414D03*
X0232654Y0065414D03*
X0222654Y0065414D03*
X0222654Y0055414D03*
X0212654Y0055414D03*
X0212654Y0065414D03*
X0202654Y0065414D03*
X0202654Y0055414D03*
X0192654Y0055414D03*
X0192654Y0065414D03*
X0182654Y0065414D03*
X0182654Y0055414D03*
D13*
X0323754Y0058214D03*
X0341554Y0058214D03*
X0341554Y0032614D03*
X0323754Y0032614D03*
X0037954Y0065264D03*
X0037954Y0083064D03*
X0012354Y0083064D03*
X0012354Y0065264D03*
X0087654Y0285414D03*
X0127654Y0285414D03*
D14*
X0031079Y0326662D02*
X0031081Y0326746D01*
X0031087Y0326829D01*
X0031097Y0326912D01*
X0031111Y0326995D01*
X0031128Y0327077D01*
X0031150Y0327158D01*
X0031175Y0327237D01*
X0031204Y0327316D01*
X0031237Y0327393D01*
X0031273Y0327468D01*
X0031313Y0327542D01*
X0031356Y0327614D01*
X0031403Y0327683D01*
X0031453Y0327750D01*
X0031506Y0327815D01*
X0031562Y0327877D01*
X0031620Y0327937D01*
X0031682Y0327994D01*
X0031746Y0328047D01*
X0031813Y0328098D01*
X0031882Y0328145D01*
X0031953Y0328190D01*
X0032026Y0328230D01*
X0032101Y0328267D01*
X0032178Y0328301D01*
X0032256Y0328331D01*
X0032335Y0328357D01*
X0032416Y0328380D01*
X0032498Y0328398D01*
X0032580Y0328413D01*
X0032663Y0328424D01*
X0032746Y0328431D01*
X0032830Y0328434D01*
X0032914Y0328433D01*
X0032997Y0328428D01*
X0033081Y0328419D01*
X0033163Y0328406D01*
X0033245Y0328390D01*
X0033326Y0328369D01*
X0033407Y0328345D01*
X0033485Y0328317D01*
X0033563Y0328285D01*
X0033639Y0328249D01*
X0033713Y0328210D01*
X0033785Y0328168D01*
X0033855Y0328122D01*
X0033923Y0328073D01*
X0033988Y0328021D01*
X0034051Y0327966D01*
X0034111Y0327908D01*
X0034169Y0327847D01*
X0034223Y0327783D01*
X0034275Y0327717D01*
X0034323Y0327649D01*
X0034368Y0327578D01*
X0034409Y0327505D01*
X0034448Y0327431D01*
X0034482Y0327355D01*
X0034513Y0327277D01*
X0034540Y0327198D01*
X0034564Y0327117D01*
X0034583Y0327036D01*
X0034599Y0326954D01*
X0034611Y0326871D01*
X0034619Y0326787D01*
X0034623Y0326704D01*
X0034623Y0326620D01*
X0034619Y0326537D01*
X0034611Y0326453D01*
X0034599Y0326370D01*
X0034583Y0326288D01*
X0034564Y0326207D01*
X0034540Y0326126D01*
X0034513Y0326047D01*
X0034482Y0325969D01*
X0034448Y0325893D01*
X0034409Y0325819D01*
X0034368Y0325746D01*
X0034323Y0325675D01*
X0034275Y0325607D01*
X0034223Y0325541D01*
X0034169Y0325477D01*
X0034111Y0325416D01*
X0034051Y0325358D01*
X0033988Y0325303D01*
X0033923Y0325251D01*
X0033855Y0325202D01*
X0033785Y0325156D01*
X0033713Y0325114D01*
X0033639Y0325075D01*
X0033563Y0325039D01*
X0033485Y0325007D01*
X0033407Y0324979D01*
X0033326Y0324955D01*
X0033245Y0324934D01*
X0033163Y0324918D01*
X0033081Y0324905D01*
X0032997Y0324896D01*
X0032914Y0324891D01*
X0032830Y0324890D01*
X0032746Y0324893D01*
X0032663Y0324900D01*
X0032580Y0324911D01*
X0032498Y0324926D01*
X0032416Y0324944D01*
X0032335Y0324967D01*
X0032256Y0324993D01*
X0032178Y0325023D01*
X0032101Y0325057D01*
X0032026Y0325094D01*
X0031953Y0325134D01*
X0031882Y0325179D01*
X0031813Y0325226D01*
X0031746Y0325277D01*
X0031682Y0325330D01*
X0031620Y0325387D01*
X0031562Y0325447D01*
X0031506Y0325509D01*
X0031453Y0325574D01*
X0031403Y0325641D01*
X0031356Y0325710D01*
X0031313Y0325782D01*
X0031273Y0325856D01*
X0031237Y0325931D01*
X0031204Y0326008D01*
X0031175Y0326087D01*
X0031150Y0326166D01*
X0031128Y0326247D01*
X0031111Y0326329D01*
X0031097Y0326412D01*
X0031087Y0326495D01*
X0031081Y0326578D01*
X0031079Y0326662D01*
X0031079Y0340442D02*
X0031081Y0340526D01*
X0031087Y0340609D01*
X0031097Y0340692D01*
X0031111Y0340775D01*
X0031128Y0340857D01*
X0031150Y0340938D01*
X0031175Y0341017D01*
X0031204Y0341096D01*
X0031237Y0341173D01*
X0031273Y0341248D01*
X0031313Y0341322D01*
X0031356Y0341394D01*
X0031403Y0341463D01*
X0031453Y0341530D01*
X0031506Y0341595D01*
X0031562Y0341657D01*
X0031620Y0341717D01*
X0031682Y0341774D01*
X0031746Y0341827D01*
X0031813Y0341878D01*
X0031882Y0341925D01*
X0031953Y0341970D01*
X0032026Y0342010D01*
X0032101Y0342047D01*
X0032178Y0342081D01*
X0032256Y0342111D01*
X0032335Y0342137D01*
X0032416Y0342160D01*
X0032498Y0342178D01*
X0032580Y0342193D01*
X0032663Y0342204D01*
X0032746Y0342211D01*
X0032830Y0342214D01*
X0032914Y0342213D01*
X0032997Y0342208D01*
X0033081Y0342199D01*
X0033163Y0342186D01*
X0033245Y0342170D01*
X0033326Y0342149D01*
X0033407Y0342125D01*
X0033485Y0342097D01*
X0033563Y0342065D01*
X0033639Y0342029D01*
X0033713Y0341990D01*
X0033785Y0341948D01*
X0033855Y0341902D01*
X0033923Y0341853D01*
X0033988Y0341801D01*
X0034051Y0341746D01*
X0034111Y0341688D01*
X0034169Y0341627D01*
X0034223Y0341563D01*
X0034275Y0341497D01*
X0034323Y0341429D01*
X0034368Y0341358D01*
X0034409Y0341285D01*
X0034448Y0341211D01*
X0034482Y0341135D01*
X0034513Y0341057D01*
X0034540Y0340978D01*
X0034564Y0340897D01*
X0034583Y0340816D01*
X0034599Y0340734D01*
X0034611Y0340651D01*
X0034619Y0340567D01*
X0034623Y0340484D01*
X0034623Y0340400D01*
X0034619Y0340317D01*
X0034611Y0340233D01*
X0034599Y0340150D01*
X0034583Y0340068D01*
X0034564Y0339987D01*
X0034540Y0339906D01*
X0034513Y0339827D01*
X0034482Y0339749D01*
X0034448Y0339673D01*
X0034409Y0339599D01*
X0034368Y0339526D01*
X0034323Y0339455D01*
X0034275Y0339387D01*
X0034223Y0339321D01*
X0034169Y0339257D01*
X0034111Y0339196D01*
X0034051Y0339138D01*
X0033988Y0339083D01*
X0033923Y0339031D01*
X0033855Y0338982D01*
X0033785Y0338936D01*
X0033713Y0338894D01*
X0033639Y0338855D01*
X0033563Y0338819D01*
X0033485Y0338787D01*
X0033407Y0338759D01*
X0033326Y0338735D01*
X0033245Y0338714D01*
X0033163Y0338698D01*
X0033081Y0338685D01*
X0032997Y0338676D01*
X0032914Y0338671D01*
X0032830Y0338670D01*
X0032746Y0338673D01*
X0032663Y0338680D01*
X0032580Y0338691D01*
X0032498Y0338706D01*
X0032416Y0338724D01*
X0032335Y0338747D01*
X0032256Y0338773D01*
X0032178Y0338803D01*
X0032101Y0338837D01*
X0032026Y0338874D01*
X0031953Y0338914D01*
X0031882Y0338959D01*
X0031813Y0339006D01*
X0031746Y0339057D01*
X0031682Y0339110D01*
X0031620Y0339167D01*
X0031562Y0339227D01*
X0031506Y0339289D01*
X0031453Y0339354D01*
X0031403Y0339421D01*
X0031356Y0339490D01*
X0031313Y0339562D01*
X0031273Y0339636D01*
X0031237Y0339711D01*
X0031204Y0339788D01*
X0031175Y0339867D01*
X0031150Y0339946D01*
X0031128Y0340027D01*
X0031111Y0340109D01*
X0031097Y0340192D01*
X0031087Y0340275D01*
X0031081Y0340358D01*
X0031079Y0340442D01*
X0286355Y0329914D02*
X0286357Y0330072D01*
X0286363Y0330230D01*
X0286373Y0330388D01*
X0286387Y0330546D01*
X0286405Y0330703D01*
X0286426Y0330860D01*
X0286452Y0331016D01*
X0286482Y0331172D01*
X0286515Y0331327D01*
X0286553Y0331480D01*
X0286594Y0331633D01*
X0286639Y0331785D01*
X0286688Y0331936D01*
X0286741Y0332085D01*
X0286797Y0332233D01*
X0286857Y0332379D01*
X0286921Y0332524D01*
X0286989Y0332667D01*
X0287060Y0332809D01*
X0287134Y0332949D01*
X0287212Y0333086D01*
X0287294Y0333222D01*
X0287378Y0333356D01*
X0287467Y0333487D01*
X0287558Y0333616D01*
X0287653Y0333743D01*
X0287750Y0333868D01*
X0287851Y0333990D01*
X0287955Y0334109D01*
X0288062Y0334226D01*
X0288172Y0334340D01*
X0288285Y0334451D01*
X0288400Y0334560D01*
X0288518Y0334665D01*
X0288639Y0334767D01*
X0288762Y0334867D01*
X0288888Y0334963D01*
X0289016Y0335056D01*
X0289146Y0335146D01*
X0289279Y0335232D01*
X0289414Y0335316D01*
X0289550Y0335395D01*
X0289689Y0335472D01*
X0289830Y0335544D01*
X0289972Y0335614D01*
X0290116Y0335679D01*
X0290262Y0335741D01*
X0290409Y0335799D01*
X0290558Y0335854D01*
X0290708Y0335905D01*
X0290859Y0335952D01*
X0291011Y0335995D01*
X0291164Y0336034D01*
X0291319Y0336070D01*
X0291474Y0336101D01*
X0291630Y0336129D01*
X0291786Y0336153D01*
X0291943Y0336173D01*
X0292101Y0336189D01*
X0292258Y0336201D01*
X0292417Y0336209D01*
X0292575Y0336213D01*
X0292733Y0336213D01*
X0292891Y0336209D01*
X0293050Y0336201D01*
X0293207Y0336189D01*
X0293365Y0336173D01*
X0293522Y0336153D01*
X0293678Y0336129D01*
X0293834Y0336101D01*
X0293989Y0336070D01*
X0294144Y0336034D01*
X0294297Y0335995D01*
X0294449Y0335952D01*
X0294600Y0335905D01*
X0294750Y0335854D01*
X0294899Y0335799D01*
X0295046Y0335741D01*
X0295192Y0335679D01*
X0295336Y0335614D01*
X0295478Y0335544D01*
X0295619Y0335472D01*
X0295758Y0335395D01*
X0295894Y0335316D01*
X0296029Y0335232D01*
X0296162Y0335146D01*
X0296292Y0335056D01*
X0296420Y0334963D01*
X0296546Y0334867D01*
X0296669Y0334767D01*
X0296790Y0334665D01*
X0296908Y0334560D01*
X0297023Y0334451D01*
X0297136Y0334340D01*
X0297246Y0334226D01*
X0297353Y0334109D01*
X0297457Y0333990D01*
X0297558Y0333868D01*
X0297655Y0333743D01*
X0297750Y0333616D01*
X0297841Y0333487D01*
X0297930Y0333356D01*
X0298014Y0333222D01*
X0298096Y0333086D01*
X0298174Y0332949D01*
X0298248Y0332809D01*
X0298319Y0332667D01*
X0298387Y0332524D01*
X0298451Y0332379D01*
X0298511Y0332233D01*
X0298567Y0332085D01*
X0298620Y0331936D01*
X0298669Y0331785D01*
X0298714Y0331633D01*
X0298755Y0331480D01*
X0298793Y0331327D01*
X0298826Y0331172D01*
X0298856Y0331016D01*
X0298882Y0330860D01*
X0298903Y0330703D01*
X0298921Y0330546D01*
X0298935Y0330388D01*
X0298945Y0330230D01*
X0298951Y0330072D01*
X0298953Y0329914D01*
X0298951Y0329756D01*
X0298945Y0329598D01*
X0298935Y0329440D01*
X0298921Y0329282D01*
X0298903Y0329125D01*
X0298882Y0328968D01*
X0298856Y0328812D01*
X0298826Y0328656D01*
X0298793Y0328501D01*
X0298755Y0328348D01*
X0298714Y0328195D01*
X0298669Y0328043D01*
X0298620Y0327892D01*
X0298567Y0327743D01*
X0298511Y0327595D01*
X0298451Y0327449D01*
X0298387Y0327304D01*
X0298319Y0327161D01*
X0298248Y0327019D01*
X0298174Y0326879D01*
X0298096Y0326742D01*
X0298014Y0326606D01*
X0297930Y0326472D01*
X0297841Y0326341D01*
X0297750Y0326212D01*
X0297655Y0326085D01*
X0297558Y0325960D01*
X0297457Y0325838D01*
X0297353Y0325719D01*
X0297246Y0325602D01*
X0297136Y0325488D01*
X0297023Y0325377D01*
X0296908Y0325268D01*
X0296790Y0325163D01*
X0296669Y0325061D01*
X0296546Y0324961D01*
X0296420Y0324865D01*
X0296292Y0324772D01*
X0296162Y0324682D01*
X0296029Y0324596D01*
X0295894Y0324512D01*
X0295758Y0324433D01*
X0295619Y0324356D01*
X0295478Y0324284D01*
X0295336Y0324214D01*
X0295192Y0324149D01*
X0295046Y0324087D01*
X0294899Y0324029D01*
X0294750Y0323974D01*
X0294600Y0323923D01*
X0294449Y0323876D01*
X0294297Y0323833D01*
X0294144Y0323794D01*
X0293989Y0323758D01*
X0293834Y0323727D01*
X0293678Y0323699D01*
X0293522Y0323675D01*
X0293365Y0323655D01*
X0293207Y0323639D01*
X0293050Y0323627D01*
X0292891Y0323619D01*
X0292733Y0323615D01*
X0292575Y0323615D01*
X0292417Y0323619D01*
X0292258Y0323627D01*
X0292101Y0323639D01*
X0291943Y0323655D01*
X0291786Y0323675D01*
X0291630Y0323699D01*
X0291474Y0323727D01*
X0291319Y0323758D01*
X0291164Y0323794D01*
X0291011Y0323833D01*
X0290859Y0323876D01*
X0290708Y0323923D01*
X0290558Y0323974D01*
X0290409Y0324029D01*
X0290262Y0324087D01*
X0290116Y0324149D01*
X0289972Y0324214D01*
X0289830Y0324284D01*
X0289689Y0324356D01*
X0289550Y0324433D01*
X0289414Y0324512D01*
X0289279Y0324596D01*
X0289146Y0324682D01*
X0289016Y0324772D01*
X0288888Y0324865D01*
X0288762Y0324961D01*
X0288639Y0325061D01*
X0288518Y0325163D01*
X0288400Y0325268D01*
X0288285Y0325377D01*
X0288172Y0325488D01*
X0288062Y0325602D01*
X0287955Y0325719D01*
X0287851Y0325838D01*
X0287750Y0325960D01*
X0287653Y0326085D01*
X0287558Y0326212D01*
X0287467Y0326341D01*
X0287378Y0326472D01*
X0287294Y0326606D01*
X0287212Y0326742D01*
X0287134Y0326879D01*
X0287060Y0327019D01*
X0286989Y0327161D01*
X0286921Y0327304D01*
X0286857Y0327449D01*
X0286797Y0327595D01*
X0286741Y0327743D01*
X0286688Y0327892D01*
X0286639Y0328043D01*
X0286594Y0328195D01*
X0286553Y0328348D01*
X0286515Y0328501D01*
X0286482Y0328656D01*
X0286452Y0328812D01*
X0286426Y0328968D01*
X0286405Y0329125D01*
X0286387Y0329282D01*
X0286373Y0329440D01*
X0286363Y0329598D01*
X0286357Y0329756D01*
X0286355Y0329914D01*
X0436355Y0329914D02*
X0436357Y0330072D01*
X0436363Y0330230D01*
X0436373Y0330388D01*
X0436387Y0330546D01*
X0436405Y0330703D01*
X0436426Y0330860D01*
X0436452Y0331016D01*
X0436482Y0331172D01*
X0436515Y0331327D01*
X0436553Y0331480D01*
X0436594Y0331633D01*
X0436639Y0331785D01*
X0436688Y0331936D01*
X0436741Y0332085D01*
X0436797Y0332233D01*
X0436857Y0332379D01*
X0436921Y0332524D01*
X0436989Y0332667D01*
X0437060Y0332809D01*
X0437134Y0332949D01*
X0437212Y0333086D01*
X0437294Y0333222D01*
X0437378Y0333356D01*
X0437467Y0333487D01*
X0437558Y0333616D01*
X0437653Y0333743D01*
X0437750Y0333868D01*
X0437851Y0333990D01*
X0437955Y0334109D01*
X0438062Y0334226D01*
X0438172Y0334340D01*
X0438285Y0334451D01*
X0438400Y0334560D01*
X0438518Y0334665D01*
X0438639Y0334767D01*
X0438762Y0334867D01*
X0438888Y0334963D01*
X0439016Y0335056D01*
X0439146Y0335146D01*
X0439279Y0335232D01*
X0439414Y0335316D01*
X0439550Y0335395D01*
X0439689Y0335472D01*
X0439830Y0335544D01*
X0439972Y0335614D01*
X0440116Y0335679D01*
X0440262Y0335741D01*
X0440409Y0335799D01*
X0440558Y0335854D01*
X0440708Y0335905D01*
X0440859Y0335952D01*
X0441011Y0335995D01*
X0441164Y0336034D01*
X0441319Y0336070D01*
X0441474Y0336101D01*
X0441630Y0336129D01*
X0441786Y0336153D01*
X0441943Y0336173D01*
X0442101Y0336189D01*
X0442258Y0336201D01*
X0442417Y0336209D01*
X0442575Y0336213D01*
X0442733Y0336213D01*
X0442891Y0336209D01*
X0443050Y0336201D01*
X0443207Y0336189D01*
X0443365Y0336173D01*
X0443522Y0336153D01*
X0443678Y0336129D01*
X0443834Y0336101D01*
X0443989Y0336070D01*
X0444144Y0336034D01*
X0444297Y0335995D01*
X0444449Y0335952D01*
X0444600Y0335905D01*
X0444750Y0335854D01*
X0444899Y0335799D01*
X0445046Y0335741D01*
X0445192Y0335679D01*
X0445336Y0335614D01*
X0445478Y0335544D01*
X0445619Y0335472D01*
X0445758Y0335395D01*
X0445894Y0335316D01*
X0446029Y0335232D01*
X0446162Y0335146D01*
X0446292Y0335056D01*
X0446420Y0334963D01*
X0446546Y0334867D01*
X0446669Y0334767D01*
X0446790Y0334665D01*
X0446908Y0334560D01*
X0447023Y0334451D01*
X0447136Y0334340D01*
X0447246Y0334226D01*
X0447353Y0334109D01*
X0447457Y0333990D01*
X0447558Y0333868D01*
X0447655Y0333743D01*
X0447750Y0333616D01*
X0447841Y0333487D01*
X0447930Y0333356D01*
X0448014Y0333222D01*
X0448096Y0333086D01*
X0448174Y0332949D01*
X0448248Y0332809D01*
X0448319Y0332667D01*
X0448387Y0332524D01*
X0448451Y0332379D01*
X0448511Y0332233D01*
X0448567Y0332085D01*
X0448620Y0331936D01*
X0448669Y0331785D01*
X0448714Y0331633D01*
X0448755Y0331480D01*
X0448793Y0331327D01*
X0448826Y0331172D01*
X0448856Y0331016D01*
X0448882Y0330860D01*
X0448903Y0330703D01*
X0448921Y0330546D01*
X0448935Y0330388D01*
X0448945Y0330230D01*
X0448951Y0330072D01*
X0448953Y0329914D01*
X0448951Y0329756D01*
X0448945Y0329598D01*
X0448935Y0329440D01*
X0448921Y0329282D01*
X0448903Y0329125D01*
X0448882Y0328968D01*
X0448856Y0328812D01*
X0448826Y0328656D01*
X0448793Y0328501D01*
X0448755Y0328348D01*
X0448714Y0328195D01*
X0448669Y0328043D01*
X0448620Y0327892D01*
X0448567Y0327743D01*
X0448511Y0327595D01*
X0448451Y0327449D01*
X0448387Y0327304D01*
X0448319Y0327161D01*
X0448248Y0327019D01*
X0448174Y0326879D01*
X0448096Y0326742D01*
X0448014Y0326606D01*
X0447930Y0326472D01*
X0447841Y0326341D01*
X0447750Y0326212D01*
X0447655Y0326085D01*
X0447558Y0325960D01*
X0447457Y0325838D01*
X0447353Y0325719D01*
X0447246Y0325602D01*
X0447136Y0325488D01*
X0447023Y0325377D01*
X0446908Y0325268D01*
X0446790Y0325163D01*
X0446669Y0325061D01*
X0446546Y0324961D01*
X0446420Y0324865D01*
X0446292Y0324772D01*
X0446162Y0324682D01*
X0446029Y0324596D01*
X0445894Y0324512D01*
X0445758Y0324433D01*
X0445619Y0324356D01*
X0445478Y0324284D01*
X0445336Y0324214D01*
X0445192Y0324149D01*
X0445046Y0324087D01*
X0444899Y0324029D01*
X0444750Y0323974D01*
X0444600Y0323923D01*
X0444449Y0323876D01*
X0444297Y0323833D01*
X0444144Y0323794D01*
X0443989Y0323758D01*
X0443834Y0323727D01*
X0443678Y0323699D01*
X0443522Y0323675D01*
X0443365Y0323655D01*
X0443207Y0323639D01*
X0443050Y0323627D01*
X0442891Y0323619D01*
X0442733Y0323615D01*
X0442575Y0323615D01*
X0442417Y0323619D01*
X0442258Y0323627D01*
X0442101Y0323639D01*
X0441943Y0323655D01*
X0441786Y0323675D01*
X0441630Y0323699D01*
X0441474Y0323727D01*
X0441319Y0323758D01*
X0441164Y0323794D01*
X0441011Y0323833D01*
X0440859Y0323876D01*
X0440708Y0323923D01*
X0440558Y0323974D01*
X0440409Y0324029D01*
X0440262Y0324087D01*
X0440116Y0324149D01*
X0439972Y0324214D01*
X0439830Y0324284D01*
X0439689Y0324356D01*
X0439550Y0324433D01*
X0439414Y0324512D01*
X0439279Y0324596D01*
X0439146Y0324682D01*
X0439016Y0324772D01*
X0438888Y0324865D01*
X0438762Y0324961D01*
X0438639Y0325061D01*
X0438518Y0325163D01*
X0438400Y0325268D01*
X0438285Y0325377D01*
X0438172Y0325488D01*
X0438062Y0325602D01*
X0437955Y0325719D01*
X0437851Y0325838D01*
X0437750Y0325960D01*
X0437653Y0326085D01*
X0437558Y0326212D01*
X0437467Y0326341D01*
X0437378Y0326472D01*
X0437294Y0326606D01*
X0437212Y0326742D01*
X0437134Y0326879D01*
X0437060Y0327019D01*
X0436989Y0327161D01*
X0436921Y0327304D01*
X0436857Y0327449D01*
X0436797Y0327595D01*
X0436741Y0327743D01*
X0436688Y0327892D01*
X0436639Y0328043D01*
X0436594Y0328195D01*
X0436553Y0328348D01*
X0436515Y0328501D01*
X0436482Y0328656D01*
X0436452Y0328812D01*
X0436426Y0328968D01*
X0436405Y0329125D01*
X0436387Y0329282D01*
X0436373Y0329440D01*
X0436363Y0329598D01*
X0436357Y0329756D01*
X0436355Y0329914D01*
X0137155Y0078390D02*
X0137157Y0078502D01*
X0137163Y0078613D01*
X0137173Y0078725D01*
X0137187Y0078836D01*
X0137204Y0078946D01*
X0137226Y0079056D01*
X0137252Y0079165D01*
X0137281Y0079273D01*
X0137314Y0079379D01*
X0137351Y0079485D01*
X0137392Y0079589D01*
X0137437Y0079692D01*
X0137485Y0079793D01*
X0137536Y0079892D01*
X0137591Y0079989D01*
X0137650Y0080084D01*
X0137711Y0080178D01*
X0137776Y0080269D01*
X0137845Y0080357D01*
X0137916Y0080443D01*
X0137990Y0080527D01*
X0138068Y0080607D01*
X0138148Y0080685D01*
X0138231Y0080761D01*
X0138316Y0080833D01*
X0138404Y0080902D01*
X0138494Y0080968D01*
X0138587Y0081030D01*
X0138682Y0081090D01*
X0138779Y0081146D01*
X0138877Y0081198D01*
X0138978Y0081247D01*
X0139080Y0081292D01*
X0139184Y0081334D01*
X0139289Y0081372D01*
X0139396Y0081406D01*
X0139503Y0081436D01*
X0139612Y0081463D01*
X0139721Y0081485D01*
X0139832Y0081504D01*
X0139942Y0081519D01*
X0140054Y0081530D01*
X0140165Y0081537D01*
X0140277Y0081540D01*
X0140389Y0081539D01*
X0140501Y0081534D01*
X0140612Y0081525D01*
X0140723Y0081512D01*
X0140834Y0081495D01*
X0140944Y0081475D01*
X0141053Y0081450D01*
X0141161Y0081422D01*
X0141268Y0081389D01*
X0141374Y0081353D01*
X0141478Y0081313D01*
X0141581Y0081270D01*
X0141683Y0081223D01*
X0141782Y0081172D01*
X0141880Y0081118D01*
X0141976Y0081060D01*
X0142070Y0080999D01*
X0142161Y0080935D01*
X0142250Y0080868D01*
X0142337Y0080797D01*
X0142421Y0080723D01*
X0142503Y0080647D01*
X0142581Y0080567D01*
X0142657Y0080485D01*
X0142730Y0080400D01*
X0142800Y0080313D01*
X0142866Y0080223D01*
X0142930Y0080131D01*
X0142990Y0080037D01*
X0143047Y0079941D01*
X0143100Y0079842D01*
X0143150Y0079742D01*
X0143196Y0079641D01*
X0143239Y0079537D01*
X0143278Y0079432D01*
X0143313Y0079326D01*
X0143344Y0079219D01*
X0143372Y0079110D01*
X0143395Y0079001D01*
X0143415Y0078891D01*
X0143431Y0078780D01*
X0143443Y0078669D01*
X0143451Y0078558D01*
X0143455Y0078446D01*
X0143455Y0078334D01*
X0143451Y0078222D01*
X0143443Y0078111D01*
X0143431Y0078000D01*
X0143415Y0077889D01*
X0143395Y0077779D01*
X0143372Y0077670D01*
X0143344Y0077561D01*
X0143313Y0077454D01*
X0143278Y0077348D01*
X0143239Y0077243D01*
X0143196Y0077139D01*
X0143150Y0077038D01*
X0143100Y0076938D01*
X0143047Y0076839D01*
X0142990Y0076743D01*
X0142930Y0076649D01*
X0142866Y0076557D01*
X0142800Y0076467D01*
X0142730Y0076380D01*
X0142657Y0076295D01*
X0142581Y0076213D01*
X0142503Y0076133D01*
X0142421Y0076057D01*
X0142337Y0075983D01*
X0142250Y0075912D01*
X0142161Y0075845D01*
X0142070Y0075781D01*
X0141976Y0075720D01*
X0141880Y0075662D01*
X0141782Y0075608D01*
X0141683Y0075557D01*
X0141581Y0075510D01*
X0141478Y0075467D01*
X0141374Y0075427D01*
X0141268Y0075391D01*
X0141161Y0075358D01*
X0141053Y0075330D01*
X0140944Y0075305D01*
X0140834Y0075285D01*
X0140723Y0075268D01*
X0140612Y0075255D01*
X0140501Y0075246D01*
X0140389Y0075241D01*
X0140277Y0075240D01*
X0140165Y0075243D01*
X0140054Y0075250D01*
X0139942Y0075261D01*
X0139832Y0075276D01*
X0139721Y0075295D01*
X0139612Y0075317D01*
X0139503Y0075344D01*
X0139396Y0075374D01*
X0139289Y0075408D01*
X0139184Y0075446D01*
X0139080Y0075488D01*
X0138978Y0075533D01*
X0138877Y0075582D01*
X0138779Y0075634D01*
X0138682Y0075690D01*
X0138587Y0075750D01*
X0138494Y0075812D01*
X0138404Y0075878D01*
X0138316Y0075947D01*
X0138231Y0076019D01*
X0138148Y0076095D01*
X0138068Y0076173D01*
X0137990Y0076253D01*
X0137916Y0076337D01*
X0137845Y0076423D01*
X0137776Y0076511D01*
X0137711Y0076602D01*
X0137650Y0076696D01*
X0137591Y0076791D01*
X0137536Y0076888D01*
X0137485Y0076987D01*
X0137437Y0077088D01*
X0137392Y0077191D01*
X0137351Y0077295D01*
X0137314Y0077401D01*
X0137281Y0077507D01*
X0137252Y0077615D01*
X0137226Y0077724D01*
X0137204Y0077834D01*
X0137187Y0077944D01*
X0137173Y0078055D01*
X0137163Y0078167D01*
X0137157Y0078278D01*
X0137155Y0078390D01*
X0055463Y0078390D02*
X0055465Y0078483D01*
X0055471Y0078575D01*
X0055481Y0078667D01*
X0055495Y0078758D01*
X0055512Y0078849D01*
X0055534Y0078939D01*
X0055559Y0079028D01*
X0055588Y0079116D01*
X0055621Y0079202D01*
X0055658Y0079287D01*
X0055698Y0079371D01*
X0055742Y0079452D01*
X0055789Y0079532D01*
X0055839Y0079610D01*
X0055893Y0079685D01*
X0055950Y0079758D01*
X0056010Y0079828D01*
X0056073Y0079896D01*
X0056139Y0079961D01*
X0056207Y0080023D01*
X0056278Y0080083D01*
X0056352Y0080139D01*
X0056428Y0080192D01*
X0056506Y0080241D01*
X0056586Y0080288D01*
X0056668Y0080330D01*
X0056752Y0080370D01*
X0056837Y0080405D01*
X0056924Y0080437D01*
X0057012Y0080466D01*
X0057101Y0080490D01*
X0057191Y0080511D01*
X0057282Y0080527D01*
X0057374Y0080540D01*
X0057466Y0080549D01*
X0057559Y0080554D01*
X0057651Y0080555D01*
X0057744Y0080552D01*
X0057836Y0080545D01*
X0057928Y0080534D01*
X0058019Y0080519D01*
X0058110Y0080501D01*
X0058200Y0080478D01*
X0058288Y0080452D01*
X0058376Y0080422D01*
X0058462Y0080388D01*
X0058546Y0080351D01*
X0058629Y0080309D01*
X0058710Y0080265D01*
X0058790Y0080217D01*
X0058867Y0080166D01*
X0058941Y0080111D01*
X0059014Y0080053D01*
X0059084Y0079993D01*
X0059151Y0079929D01*
X0059215Y0079863D01*
X0059277Y0079793D01*
X0059335Y0079722D01*
X0059390Y0079648D01*
X0059442Y0079571D01*
X0059491Y0079492D01*
X0059537Y0079412D01*
X0059579Y0079329D01*
X0059617Y0079245D01*
X0059652Y0079159D01*
X0059683Y0079072D01*
X0059710Y0078984D01*
X0059733Y0078894D01*
X0059753Y0078804D01*
X0059769Y0078713D01*
X0059781Y0078621D01*
X0059789Y0078529D01*
X0059793Y0078436D01*
X0059793Y0078344D01*
X0059789Y0078251D01*
X0059781Y0078159D01*
X0059769Y0078067D01*
X0059753Y0077976D01*
X0059733Y0077886D01*
X0059710Y0077796D01*
X0059683Y0077708D01*
X0059652Y0077621D01*
X0059617Y0077535D01*
X0059579Y0077451D01*
X0059537Y0077368D01*
X0059491Y0077288D01*
X0059442Y0077209D01*
X0059390Y0077132D01*
X0059335Y0077058D01*
X0059277Y0076987D01*
X0059215Y0076917D01*
X0059151Y0076851D01*
X0059084Y0076787D01*
X0059014Y0076727D01*
X0058941Y0076669D01*
X0058867Y0076614D01*
X0058790Y0076563D01*
X0058711Y0076515D01*
X0058629Y0076471D01*
X0058546Y0076429D01*
X0058462Y0076392D01*
X0058376Y0076358D01*
X0058288Y0076328D01*
X0058200Y0076302D01*
X0058110Y0076279D01*
X0058019Y0076261D01*
X0057928Y0076246D01*
X0057836Y0076235D01*
X0057744Y0076228D01*
X0057651Y0076225D01*
X0057559Y0076226D01*
X0057466Y0076231D01*
X0057374Y0076240D01*
X0057282Y0076253D01*
X0057191Y0076269D01*
X0057101Y0076290D01*
X0057012Y0076314D01*
X0056924Y0076343D01*
X0056837Y0076375D01*
X0056752Y0076410D01*
X0056668Y0076450D01*
X0056586Y0076492D01*
X0056506Y0076539D01*
X0056428Y0076588D01*
X0056352Y0076641D01*
X0056278Y0076697D01*
X0056207Y0076757D01*
X0056139Y0076819D01*
X0056073Y0076884D01*
X0056010Y0076952D01*
X0055950Y0077022D01*
X0055893Y0077095D01*
X0055839Y0077170D01*
X0055789Y0077248D01*
X0055742Y0077328D01*
X0055698Y0077409D01*
X0055658Y0077493D01*
X0055621Y0077578D01*
X0055588Y0077664D01*
X0055559Y0077752D01*
X0055534Y0077841D01*
X0055512Y0077931D01*
X0055495Y0078022D01*
X0055481Y0078113D01*
X0055471Y0078205D01*
X0055465Y0078297D01*
X0055463Y0078390D01*
X0016355Y0035414D02*
X0016357Y0035572D01*
X0016363Y0035730D01*
X0016373Y0035888D01*
X0016387Y0036046D01*
X0016405Y0036203D01*
X0016426Y0036360D01*
X0016452Y0036516D01*
X0016482Y0036672D01*
X0016515Y0036827D01*
X0016553Y0036980D01*
X0016594Y0037133D01*
X0016639Y0037285D01*
X0016688Y0037436D01*
X0016741Y0037585D01*
X0016797Y0037733D01*
X0016857Y0037879D01*
X0016921Y0038024D01*
X0016989Y0038167D01*
X0017060Y0038309D01*
X0017134Y0038449D01*
X0017212Y0038586D01*
X0017294Y0038722D01*
X0017378Y0038856D01*
X0017467Y0038987D01*
X0017558Y0039116D01*
X0017653Y0039243D01*
X0017750Y0039368D01*
X0017851Y0039490D01*
X0017955Y0039609D01*
X0018062Y0039726D01*
X0018172Y0039840D01*
X0018285Y0039951D01*
X0018400Y0040060D01*
X0018518Y0040165D01*
X0018639Y0040267D01*
X0018762Y0040367D01*
X0018888Y0040463D01*
X0019016Y0040556D01*
X0019146Y0040646D01*
X0019279Y0040732D01*
X0019414Y0040816D01*
X0019550Y0040895D01*
X0019689Y0040972D01*
X0019830Y0041044D01*
X0019972Y0041114D01*
X0020116Y0041179D01*
X0020262Y0041241D01*
X0020409Y0041299D01*
X0020558Y0041354D01*
X0020708Y0041405D01*
X0020859Y0041452D01*
X0021011Y0041495D01*
X0021164Y0041534D01*
X0021319Y0041570D01*
X0021474Y0041601D01*
X0021630Y0041629D01*
X0021786Y0041653D01*
X0021943Y0041673D01*
X0022101Y0041689D01*
X0022258Y0041701D01*
X0022417Y0041709D01*
X0022575Y0041713D01*
X0022733Y0041713D01*
X0022891Y0041709D01*
X0023050Y0041701D01*
X0023207Y0041689D01*
X0023365Y0041673D01*
X0023522Y0041653D01*
X0023678Y0041629D01*
X0023834Y0041601D01*
X0023989Y0041570D01*
X0024144Y0041534D01*
X0024297Y0041495D01*
X0024449Y0041452D01*
X0024600Y0041405D01*
X0024750Y0041354D01*
X0024899Y0041299D01*
X0025046Y0041241D01*
X0025192Y0041179D01*
X0025336Y0041114D01*
X0025478Y0041044D01*
X0025619Y0040972D01*
X0025758Y0040895D01*
X0025894Y0040816D01*
X0026029Y0040732D01*
X0026162Y0040646D01*
X0026292Y0040556D01*
X0026420Y0040463D01*
X0026546Y0040367D01*
X0026669Y0040267D01*
X0026790Y0040165D01*
X0026908Y0040060D01*
X0027023Y0039951D01*
X0027136Y0039840D01*
X0027246Y0039726D01*
X0027353Y0039609D01*
X0027457Y0039490D01*
X0027558Y0039368D01*
X0027655Y0039243D01*
X0027750Y0039116D01*
X0027841Y0038987D01*
X0027930Y0038856D01*
X0028014Y0038722D01*
X0028096Y0038586D01*
X0028174Y0038449D01*
X0028248Y0038309D01*
X0028319Y0038167D01*
X0028387Y0038024D01*
X0028451Y0037879D01*
X0028511Y0037733D01*
X0028567Y0037585D01*
X0028620Y0037436D01*
X0028669Y0037285D01*
X0028714Y0037133D01*
X0028755Y0036980D01*
X0028793Y0036827D01*
X0028826Y0036672D01*
X0028856Y0036516D01*
X0028882Y0036360D01*
X0028903Y0036203D01*
X0028921Y0036046D01*
X0028935Y0035888D01*
X0028945Y0035730D01*
X0028951Y0035572D01*
X0028953Y0035414D01*
X0028951Y0035256D01*
X0028945Y0035098D01*
X0028935Y0034940D01*
X0028921Y0034782D01*
X0028903Y0034625D01*
X0028882Y0034468D01*
X0028856Y0034312D01*
X0028826Y0034156D01*
X0028793Y0034001D01*
X0028755Y0033848D01*
X0028714Y0033695D01*
X0028669Y0033543D01*
X0028620Y0033392D01*
X0028567Y0033243D01*
X0028511Y0033095D01*
X0028451Y0032949D01*
X0028387Y0032804D01*
X0028319Y0032661D01*
X0028248Y0032519D01*
X0028174Y0032379D01*
X0028096Y0032242D01*
X0028014Y0032106D01*
X0027930Y0031972D01*
X0027841Y0031841D01*
X0027750Y0031712D01*
X0027655Y0031585D01*
X0027558Y0031460D01*
X0027457Y0031338D01*
X0027353Y0031219D01*
X0027246Y0031102D01*
X0027136Y0030988D01*
X0027023Y0030877D01*
X0026908Y0030768D01*
X0026790Y0030663D01*
X0026669Y0030561D01*
X0026546Y0030461D01*
X0026420Y0030365D01*
X0026292Y0030272D01*
X0026162Y0030182D01*
X0026029Y0030096D01*
X0025894Y0030012D01*
X0025758Y0029933D01*
X0025619Y0029856D01*
X0025478Y0029784D01*
X0025336Y0029714D01*
X0025192Y0029649D01*
X0025046Y0029587D01*
X0024899Y0029529D01*
X0024750Y0029474D01*
X0024600Y0029423D01*
X0024449Y0029376D01*
X0024297Y0029333D01*
X0024144Y0029294D01*
X0023989Y0029258D01*
X0023834Y0029227D01*
X0023678Y0029199D01*
X0023522Y0029175D01*
X0023365Y0029155D01*
X0023207Y0029139D01*
X0023050Y0029127D01*
X0022891Y0029119D01*
X0022733Y0029115D01*
X0022575Y0029115D01*
X0022417Y0029119D01*
X0022258Y0029127D01*
X0022101Y0029139D01*
X0021943Y0029155D01*
X0021786Y0029175D01*
X0021630Y0029199D01*
X0021474Y0029227D01*
X0021319Y0029258D01*
X0021164Y0029294D01*
X0021011Y0029333D01*
X0020859Y0029376D01*
X0020708Y0029423D01*
X0020558Y0029474D01*
X0020409Y0029529D01*
X0020262Y0029587D01*
X0020116Y0029649D01*
X0019972Y0029714D01*
X0019830Y0029784D01*
X0019689Y0029856D01*
X0019550Y0029933D01*
X0019414Y0030012D01*
X0019279Y0030096D01*
X0019146Y0030182D01*
X0019016Y0030272D01*
X0018888Y0030365D01*
X0018762Y0030461D01*
X0018639Y0030561D01*
X0018518Y0030663D01*
X0018400Y0030768D01*
X0018285Y0030877D01*
X0018172Y0030988D01*
X0018062Y0031102D01*
X0017955Y0031219D01*
X0017851Y0031338D01*
X0017750Y0031460D01*
X0017653Y0031585D01*
X0017558Y0031712D01*
X0017467Y0031841D01*
X0017378Y0031972D01*
X0017294Y0032106D01*
X0017212Y0032242D01*
X0017134Y0032379D01*
X0017060Y0032519D01*
X0016989Y0032661D01*
X0016921Y0032804D01*
X0016857Y0032949D01*
X0016797Y0033095D01*
X0016741Y0033243D01*
X0016688Y0033392D01*
X0016639Y0033543D01*
X0016594Y0033695D01*
X0016553Y0033848D01*
X0016515Y0034001D01*
X0016482Y0034156D01*
X0016452Y0034312D01*
X0016426Y0034468D01*
X0016405Y0034625D01*
X0016387Y0034782D01*
X0016373Y0034940D01*
X0016363Y0035098D01*
X0016357Y0035256D01*
X0016355Y0035414D01*
X0356254Y0037914D02*
X0356256Y0038074D01*
X0356262Y0038233D01*
X0356272Y0038392D01*
X0356286Y0038551D01*
X0356304Y0038710D01*
X0356325Y0038868D01*
X0356351Y0039025D01*
X0356381Y0039182D01*
X0356414Y0039338D01*
X0356452Y0039493D01*
X0356493Y0039647D01*
X0356538Y0039800D01*
X0356587Y0039952D01*
X0356640Y0040103D01*
X0356696Y0040252D01*
X0356757Y0040400D01*
X0356820Y0040546D01*
X0356888Y0040691D01*
X0356959Y0040834D01*
X0357033Y0040975D01*
X0357111Y0041114D01*
X0357193Y0041251D01*
X0357278Y0041386D01*
X0357366Y0041519D01*
X0357458Y0041650D01*
X0357552Y0041778D01*
X0357650Y0041904D01*
X0357751Y0042028D01*
X0357855Y0042149D01*
X0357962Y0042267D01*
X0358072Y0042383D01*
X0358185Y0042496D01*
X0358301Y0042606D01*
X0358419Y0042713D01*
X0358540Y0042817D01*
X0358664Y0042918D01*
X0358790Y0043016D01*
X0358918Y0043110D01*
X0359049Y0043202D01*
X0359182Y0043290D01*
X0359317Y0043375D01*
X0359454Y0043457D01*
X0359593Y0043535D01*
X0359734Y0043609D01*
X0359877Y0043680D01*
X0360022Y0043748D01*
X0360168Y0043811D01*
X0360316Y0043872D01*
X0360465Y0043928D01*
X0360616Y0043981D01*
X0360768Y0044030D01*
X0360921Y0044075D01*
X0361075Y0044116D01*
X0361230Y0044154D01*
X0361386Y0044187D01*
X0361543Y0044217D01*
X0361700Y0044243D01*
X0361858Y0044264D01*
X0362017Y0044282D01*
X0362176Y0044296D01*
X0362335Y0044306D01*
X0362494Y0044312D01*
X0362654Y0044314D01*
X0362814Y0044312D01*
X0362973Y0044306D01*
X0363132Y0044296D01*
X0363291Y0044282D01*
X0363450Y0044264D01*
X0363608Y0044243D01*
X0363765Y0044217D01*
X0363922Y0044187D01*
X0364078Y0044154D01*
X0364233Y0044116D01*
X0364387Y0044075D01*
X0364540Y0044030D01*
X0364692Y0043981D01*
X0364843Y0043928D01*
X0364992Y0043872D01*
X0365140Y0043811D01*
X0365286Y0043748D01*
X0365431Y0043680D01*
X0365574Y0043609D01*
X0365715Y0043535D01*
X0365854Y0043457D01*
X0365991Y0043375D01*
X0366126Y0043290D01*
X0366259Y0043202D01*
X0366390Y0043110D01*
X0366518Y0043016D01*
X0366644Y0042918D01*
X0366768Y0042817D01*
X0366889Y0042713D01*
X0367007Y0042606D01*
X0367123Y0042496D01*
X0367236Y0042383D01*
X0367346Y0042267D01*
X0367453Y0042149D01*
X0367557Y0042028D01*
X0367658Y0041904D01*
X0367756Y0041778D01*
X0367850Y0041650D01*
X0367942Y0041519D01*
X0368030Y0041386D01*
X0368115Y0041251D01*
X0368197Y0041114D01*
X0368275Y0040975D01*
X0368349Y0040834D01*
X0368420Y0040691D01*
X0368488Y0040546D01*
X0368551Y0040400D01*
X0368612Y0040252D01*
X0368668Y0040103D01*
X0368721Y0039952D01*
X0368770Y0039800D01*
X0368815Y0039647D01*
X0368856Y0039493D01*
X0368894Y0039338D01*
X0368927Y0039182D01*
X0368957Y0039025D01*
X0368983Y0038868D01*
X0369004Y0038710D01*
X0369022Y0038551D01*
X0369036Y0038392D01*
X0369046Y0038233D01*
X0369052Y0038074D01*
X0369054Y0037914D01*
X0369052Y0037754D01*
X0369046Y0037595D01*
X0369036Y0037436D01*
X0369022Y0037277D01*
X0369004Y0037118D01*
X0368983Y0036960D01*
X0368957Y0036803D01*
X0368927Y0036646D01*
X0368894Y0036490D01*
X0368856Y0036335D01*
X0368815Y0036181D01*
X0368770Y0036028D01*
X0368721Y0035876D01*
X0368668Y0035725D01*
X0368612Y0035576D01*
X0368551Y0035428D01*
X0368488Y0035282D01*
X0368420Y0035137D01*
X0368349Y0034994D01*
X0368275Y0034853D01*
X0368197Y0034714D01*
X0368115Y0034577D01*
X0368030Y0034442D01*
X0367942Y0034309D01*
X0367850Y0034178D01*
X0367756Y0034050D01*
X0367658Y0033924D01*
X0367557Y0033800D01*
X0367453Y0033679D01*
X0367346Y0033561D01*
X0367236Y0033445D01*
X0367123Y0033332D01*
X0367007Y0033222D01*
X0366889Y0033115D01*
X0366768Y0033011D01*
X0366644Y0032910D01*
X0366518Y0032812D01*
X0366390Y0032718D01*
X0366259Y0032626D01*
X0366126Y0032538D01*
X0365991Y0032453D01*
X0365854Y0032371D01*
X0365715Y0032293D01*
X0365574Y0032219D01*
X0365431Y0032148D01*
X0365286Y0032080D01*
X0365140Y0032017D01*
X0364992Y0031956D01*
X0364843Y0031900D01*
X0364692Y0031847D01*
X0364540Y0031798D01*
X0364387Y0031753D01*
X0364233Y0031712D01*
X0364078Y0031674D01*
X0363922Y0031641D01*
X0363765Y0031611D01*
X0363608Y0031585D01*
X0363450Y0031564D01*
X0363291Y0031546D01*
X0363132Y0031532D01*
X0362973Y0031522D01*
X0362814Y0031516D01*
X0362654Y0031514D01*
X0362494Y0031516D01*
X0362335Y0031522D01*
X0362176Y0031532D01*
X0362017Y0031546D01*
X0361858Y0031564D01*
X0361700Y0031585D01*
X0361543Y0031611D01*
X0361386Y0031641D01*
X0361230Y0031674D01*
X0361075Y0031712D01*
X0360921Y0031753D01*
X0360768Y0031798D01*
X0360616Y0031847D01*
X0360465Y0031900D01*
X0360316Y0031956D01*
X0360168Y0032017D01*
X0360022Y0032080D01*
X0359877Y0032148D01*
X0359734Y0032219D01*
X0359593Y0032293D01*
X0359454Y0032371D01*
X0359317Y0032453D01*
X0359182Y0032538D01*
X0359049Y0032626D01*
X0358918Y0032718D01*
X0358790Y0032812D01*
X0358664Y0032910D01*
X0358540Y0033011D01*
X0358419Y0033115D01*
X0358301Y0033222D01*
X0358185Y0033332D01*
X0358072Y0033445D01*
X0357962Y0033561D01*
X0357855Y0033679D01*
X0357751Y0033800D01*
X0357650Y0033924D01*
X0357552Y0034050D01*
X0357458Y0034178D01*
X0357366Y0034309D01*
X0357278Y0034442D01*
X0357193Y0034577D01*
X0357111Y0034714D01*
X0357033Y0034853D01*
X0356959Y0034994D01*
X0356888Y0035137D01*
X0356820Y0035282D01*
X0356757Y0035428D01*
X0356696Y0035576D01*
X0356640Y0035725D01*
X0356587Y0035876D01*
X0356538Y0036028D01*
X0356493Y0036181D01*
X0356452Y0036335D01*
X0356414Y0036490D01*
X0356381Y0036646D01*
X0356351Y0036803D01*
X0356325Y0036960D01*
X0356304Y0037118D01*
X0356286Y0037277D01*
X0356272Y0037436D01*
X0356262Y0037595D01*
X0356256Y0037754D01*
X0356254Y0037914D01*
X0406254Y0037914D02*
X0406256Y0038074D01*
X0406262Y0038233D01*
X0406272Y0038392D01*
X0406286Y0038551D01*
X0406304Y0038710D01*
X0406325Y0038868D01*
X0406351Y0039025D01*
X0406381Y0039182D01*
X0406414Y0039338D01*
X0406452Y0039493D01*
X0406493Y0039647D01*
X0406538Y0039800D01*
X0406587Y0039952D01*
X0406640Y0040103D01*
X0406696Y0040252D01*
X0406757Y0040400D01*
X0406820Y0040546D01*
X0406888Y0040691D01*
X0406959Y0040834D01*
X0407033Y0040975D01*
X0407111Y0041114D01*
X0407193Y0041251D01*
X0407278Y0041386D01*
X0407366Y0041519D01*
X0407458Y0041650D01*
X0407552Y0041778D01*
X0407650Y0041904D01*
X0407751Y0042028D01*
X0407855Y0042149D01*
X0407962Y0042267D01*
X0408072Y0042383D01*
X0408185Y0042496D01*
X0408301Y0042606D01*
X0408419Y0042713D01*
X0408540Y0042817D01*
X0408664Y0042918D01*
X0408790Y0043016D01*
X0408918Y0043110D01*
X0409049Y0043202D01*
X0409182Y0043290D01*
X0409317Y0043375D01*
X0409454Y0043457D01*
X0409593Y0043535D01*
X0409734Y0043609D01*
X0409877Y0043680D01*
X0410022Y0043748D01*
X0410168Y0043811D01*
X0410316Y0043872D01*
X0410465Y0043928D01*
X0410616Y0043981D01*
X0410768Y0044030D01*
X0410921Y0044075D01*
X0411075Y0044116D01*
X0411230Y0044154D01*
X0411386Y0044187D01*
X0411543Y0044217D01*
X0411700Y0044243D01*
X0411858Y0044264D01*
X0412017Y0044282D01*
X0412176Y0044296D01*
X0412335Y0044306D01*
X0412494Y0044312D01*
X0412654Y0044314D01*
X0412814Y0044312D01*
X0412973Y0044306D01*
X0413132Y0044296D01*
X0413291Y0044282D01*
X0413450Y0044264D01*
X0413608Y0044243D01*
X0413765Y0044217D01*
X0413922Y0044187D01*
X0414078Y0044154D01*
X0414233Y0044116D01*
X0414387Y0044075D01*
X0414540Y0044030D01*
X0414692Y0043981D01*
X0414843Y0043928D01*
X0414992Y0043872D01*
X0415140Y0043811D01*
X0415286Y0043748D01*
X0415431Y0043680D01*
X0415574Y0043609D01*
X0415715Y0043535D01*
X0415854Y0043457D01*
X0415991Y0043375D01*
X0416126Y0043290D01*
X0416259Y0043202D01*
X0416390Y0043110D01*
X0416518Y0043016D01*
X0416644Y0042918D01*
X0416768Y0042817D01*
X0416889Y0042713D01*
X0417007Y0042606D01*
X0417123Y0042496D01*
X0417236Y0042383D01*
X0417346Y0042267D01*
X0417453Y0042149D01*
X0417557Y0042028D01*
X0417658Y0041904D01*
X0417756Y0041778D01*
X0417850Y0041650D01*
X0417942Y0041519D01*
X0418030Y0041386D01*
X0418115Y0041251D01*
X0418197Y0041114D01*
X0418275Y0040975D01*
X0418349Y0040834D01*
X0418420Y0040691D01*
X0418488Y0040546D01*
X0418551Y0040400D01*
X0418612Y0040252D01*
X0418668Y0040103D01*
X0418721Y0039952D01*
X0418770Y0039800D01*
X0418815Y0039647D01*
X0418856Y0039493D01*
X0418894Y0039338D01*
X0418927Y0039182D01*
X0418957Y0039025D01*
X0418983Y0038868D01*
X0419004Y0038710D01*
X0419022Y0038551D01*
X0419036Y0038392D01*
X0419046Y0038233D01*
X0419052Y0038074D01*
X0419054Y0037914D01*
X0419052Y0037754D01*
X0419046Y0037595D01*
X0419036Y0037436D01*
X0419022Y0037277D01*
X0419004Y0037118D01*
X0418983Y0036960D01*
X0418957Y0036803D01*
X0418927Y0036646D01*
X0418894Y0036490D01*
X0418856Y0036335D01*
X0418815Y0036181D01*
X0418770Y0036028D01*
X0418721Y0035876D01*
X0418668Y0035725D01*
X0418612Y0035576D01*
X0418551Y0035428D01*
X0418488Y0035282D01*
X0418420Y0035137D01*
X0418349Y0034994D01*
X0418275Y0034853D01*
X0418197Y0034714D01*
X0418115Y0034577D01*
X0418030Y0034442D01*
X0417942Y0034309D01*
X0417850Y0034178D01*
X0417756Y0034050D01*
X0417658Y0033924D01*
X0417557Y0033800D01*
X0417453Y0033679D01*
X0417346Y0033561D01*
X0417236Y0033445D01*
X0417123Y0033332D01*
X0417007Y0033222D01*
X0416889Y0033115D01*
X0416768Y0033011D01*
X0416644Y0032910D01*
X0416518Y0032812D01*
X0416390Y0032718D01*
X0416259Y0032626D01*
X0416126Y0032538D01*
X0415991Y0032453D01*
X0415854Y0032371D01*
X0415715Y0032293D01*
X0415574Y0032219D01*
X0415431Y0032148D01*
X0415286Y0032080D01*
X0415140Y0032017D01*
X0414992Y0031956D01*
X0414843Y0031900D01*
X0414692Y0031847D01*
X0414540Y0031798D01*
X0414387Y0031753D01*
X0414233Y0031712D01*
X0414078Y0031674D01*
X0413922Y0031641D01*
X0413765Y0031611D01*
X0413608Y0031585D01*
X0413450Y0031564D01*
X0413291Y0031546D01*
X0413132Y0031532D01*
X0412973Y0031522D01*
X0412814Y0031516D01*
X0412654Y0031514D01*
X0412494Y0031516D01*
X0412335Y0031522D01*
X0412176Y0031532D01*
X0412017Y0031546D01*
X0411858Y0031564D01*
X0411700Y0031585D01*
X0411543Y0031611D01*
X0411386Y0031641D01*
X0411230Y0031674D01*
X0411075Y0031712D01*
X0410921Y0031753D01*
X0410768Y0031798D01*
X0410616Y0031847D01*
X0410465Y0031900D01*
X0410316Y0031956D01*
X0410168Y0032017D01*
X0410022Y0032080D01*
X0409877Y0032148D01*
X0409734Y0032219D01*
X0409593Y0032293D01*
X0409454Y0032371D01*
X0409317Y0032453D01*
X0409182Y0032538D01*
X0409049Y0032626D01*
X0408918Y0032718D01*
X0408790Y0032812D01*
X0408664Y0032910D01*
X0408540Y0033011D01*
X0408419Y0033115D01*
X0408301Y0033222D01*
X0408185Y0033332D01*
X0408072Y0033445D01*
X0407962Y0033561D01*
X0407855Y0033679D01*
X0407751Y0033800D01*
X0407650Y0033924D01*
X0407552Y0034050D01*
X0407458Y0034178D01*
X0407366Y0034309D01*
X0407278Y0034442D01*
X0407193Y0034577D01*
X0407111Y0034714D01*
X0407033Y0034853D01*
X0406959Y0034994D01*
X0406888Y0035137D01*
X0406820Y0035282D01*
X0406757Y0035428D01*
X0406696Y0035576D01*
X0406640Y0035725D01*
X0406587Y0035876D01*
X0406538Y0036028D01*
X0406493Y0036181D01*
X0406452Y0036335D01*
X0406414Y0036490D01*
X0406381Y0036646D01*
X0406351Y0036803D01*
X0406325Y0036960D01*
X0406304Y0037118D01*
X0406286Y0037277D01*
X0406272Y0037436D01*
X0406262Y0037595D01*
X0406256Y0037754D01*
X0406254Y0037914D01*
X0436355Y0035414D02*
X0436357Y0035572D01*
X0436363Y0035730D01*
X0436373Y0035888D01*
X0436387Y0036046D01*
X0436405Y0036203D01*
X0436426Y0036360D01*
X0436452Y0036516D01*
X0436482Y0036672D01*
X0436515Y0036827D01*
X0436553Y0036980D01*
X0436594Y0037133D01*
X0436639Y0037285D01*
X0436688Y0037436D01*
X0436741Y0037585D01*
X0436797Y0037733D01*
X0436857Y0037879D01*
X0436921Y0038024D01*
X0436989Y0038167D01*
X0437060Y0038309D01*
X0437134Y0038449D01*
X0437212Y0038586D01*
X0437294Y0038722D01*
X0437378Y0038856D01*
X0437467Y0038987D01*
X0437558Y0039116D01*
X0437653Y0039243D01*
X0437750Y0039368D01*
X0437851Y0039490D01*
X0437955Y0039609D01*
X0438062Y0039726D01*
X0438172Y0039840D01*
X0438285Y0039951D01*
X0438400Y0040060D01*
X0438518Y0040165D01*
X0438639Y0040267D01*
X0438762Y0040367D01*
X0438888Y0040463D01*
X0439016Y0040556D01*
X0439146Y0040646D01*
X0439279Y0040732D01*
X0439414Y0040816D01*
X0439550Y0040895D01*
X0439689Y0040972D01*
X0439830Y0041044D01*
X0439972Y0041114D01*
X0440116Y0041179D01*
X0440262Y0041241D01*
X0440409Y0041299D01*
X0440558Y0041354D01*
X0440708Y0041405D01*
X0440859Y0041452D01*
X0441011Y0041495D01*
X0441164Y0041534D01*
X0441319Y0041570D01*
X0441474Y0041601D01*
X0441630Y0041629D01*
X0441786Y0041653D01*
X0441943Y0041673D01*
X0442101Y0041689D01*
X0442258Y0041701D01*
X0442417Y0041709D01*
X0442575Y0041713D01*
X0442733Y0041713D01*
X0442891Y0041709D01*
X0443050Y0041701D01*
X0443207Y0041689D01*
X0443365Y0041673D01*
X0443522Y0041653D01*
X0443678Y0041629D01*
X0443834Y0041601D01*
X0443989Y0041570D01*
X0444144Y0041534D01*
X0444297Y0041495D01*
X0444449Y0041452D01*
X0444600Y0041405D01*
X0444750Y0041354D01*
X0444899Y0041299D01*
X0445046Y0041241D01*
X0445192Y0041179D01*
X0445336Y0041114D01*
X0445478Y0041044D01*
X0445619Y0040972D01*
X0445758Y0040895D01*
X0445894Y0040816D01*
X0446029Y0040732D01*
X0446162Y0040646D01*
X0446292Y0040556D01*
X0446420Y0040463D01*
X0446546Y0040367D01*
X0446669Y0040267D01*
X0446790Y0040165D01*
X0446908Y0040060D01*
X0447023Y0039951D01*
X0447136Y0039840D01*
X0447246Y0039726D01*
X0447353Y0039609D01*
X0447457Y0039490D01*
X0447558Y0039368D01*
X0447655Y0039243D01*
X0447750Y0039116D01*
X0447841Y0038987D01*
X0447930Y0038856D01*
X0448014Y0038722D01*
X0448096Y0038586D01*
X0448174Y0038449D01*
X0448248Y0038309D01*
X0448319Y0038167D01*
X0448387Y0038024D01*
X0448451Y0037879D01*
X0448511Y0037733D01*
X0448567Y0037585D01*
X0448620Y0037436D01*
X0448669Y0037285D01*
X0448714Y0037133D01*
X0448755Y0036980D01*
X0448793Y0036827D01*
X0448826Y0036672D01*
X0448856Y0036516D01*
X0448882Y0036360D01*
X0448903Y0036203D01*
X0448921Y0036046D01*
X0448935Y0035888D01*
X0448945Y0035730D01*
X0448951Y0035572D01*
X0448953Y0035414D01*
X0448951Y0035256D01*
X0448945Y0035098D01*
X0448935Y0034940D01*
X0448921Y0034782D01*
X0448903Y0034625D01*
X0448882Y0034468D01*
X0448856Y0034312D01*
X0448826Y0034156D01*
X0448793Y0034001D01*
X0448755Y0033848D01*
X0448714Y0033695D01*
X0448669Y0033543D01*
X0448620Y0033392D01*
X0448567Y0033243D01*
X0448511Y0033095D01*
X0448451Y0032949D01*
X0448387Y0032804D01*
X0448319Y0032661D01*
X0448248Y0032519D01*
X0448174Y0032379D01*
X0448096Y0032242D01*
X0448014Y0032106D01*
X0447930Y0031972D01*
X0447841Y0031841D01*
X0447750Y0031712D01*
X0447655Y0031585D01*
X0447558Y0031460D01*
X0447457Y0031338D01*
X0447353Y0031219D01*
X0447246Y0031102D01*
X0447136Y0030988D01*
X0447023Y0030877D01*
X0446908Y0030768D01*
X0446790Y0030663D01*
X0446669Y0030561D01*
X0446546Y0030461D01*
X0446420Y0030365D01*
X0446292Y0030272D01*
X0446162Y0030182D01*
X0446029Y0030096D01*
X0445894Y0030012D01*
X0445758Y0029933D01*
X0445619Y0029856D01*
X0445478Y0029784D01*
X0445336Y0029714D01*
X0445192Y0029649D01*
X0445046Y0029587D01*
X0444899Y0029529D01*
X0444750Y0029474D01*
X0444600Y0029423D01*
X0444449Y0029376D01*
X0444297Y0029333D01*
X0444144Y0029294D01*
X0443989Y0029258D01*
X0443834Y0029227D01*
X0443678Y0029199D01*
X0443522Y0029175D01*
X0443365Y0029155D01*
X0443207Y0029139D01*
X0443050Y0029127D01*
X0442891Y0029119D01*
X0442733Y0029115D01*
X0442575Y0029115D01*
X0442417Y0029119D01*
X0442258Y0029127D01*
X0442101Y0029139D01*
X0441943Y0029155D01*
X0441786Y0029175D01*
X0441630Y0029199D01*
X0441474Y0029227D01*
X0441319Y0029258D01*
X0441164Y0029294D01*
X0441011Y0029333D01*
X0440859Y0029376D01*
X0440708Y0029423D01*
X0440558Y0029474D01*
X0440409Y0029529D01*
X0440262Y0029587D01*
X0440116Y0029649D01*
X0439972Y0029714D01*
X0439830Y0029784D01*
X0439689Y0029856D01*
X0439550Y0029933D01*
X0439414Y0030012D01*
X0439279Y0030096D01*
X0439146Y0030182D01*
X0439016Y0030272D01*
X0438888Y0030365D01*
X0438762Y0030461D01*
X0438639Y0030561D01*
X0438518Y0030663D01*
X0438400Y0030768D01*
X0438285Y0030877D01*
X0438172Y0030988D01*
X0438062Y0031102D01*
X0437955Y0031219D01*
X0437851Y0031338D01*
X0437750Y0031460D01*
X0437653Y0031585D01*
X0437558Y0031712D01*
X0437467Y0031841D01*
X0437378Y0031972D01*
X0437294Y0032106D01*
X0437212Y0032242D01*
X0437134Y0032379D01*
X0437060Y0032519D01*
X0436989Y0032661D01*
X0436921Y0032804D01*
X0436857Y0032949D01*
X0436797Y0033095D01*
X0436741Y0033243D01*
X0436688Y0033392D01*
X0436639Y0033543D01*
X0436594Y0033695D01*
X0436553Y0033848D01*
X0436515Y0034001D01*
X0436482Y0034156D01*
X0436452Y0034312D01*
X0436426Y0034468D01*
X0436405Y0034625D01*
X0436387Y0034782D01*
X0436373Y0034940D01*
X0436363Y0035098D01*
X0436357Y0035256D01*
X0436355Y0035414D01*
D15*
X0401654Y0047914D03*
X0393654Y0047914D03*
X0385654Y0047914D03*
X0377654Y0047914D03*
X0381654Y0054914D03*
X0389654Y0054914D03*
X0397654Y0054914D03*
X0373654Y0054914D03*
D16*
X0355754Y0051414D03*
X0419554Y0051414D03*
D17*
X0043087Y0319182D02*
X0038362Y0319182D01*
X0022221Y0319182D02*
X0017496Y0319182D01*
X0017496Y0347922D02*
X0022221Y0347922D01*
X0038362Y0347922D02*
X0043087Y0347922D01*
D18*
X0417754Y0237914D02*
X0422554Y0237914D01*
X0422554Y0227914D02*
X0417754Y0227914D01*
X0417754Y0202914D02*
X0422554Y0202914D01*
X0422554Y0192914D02*
X0417754Y0192914D01*
X0417754Y0182914D02*
X0422554Y0182914D01*
X0447754Y0182914D02*
X0452554Y0182914D01*
X0452554Y0192914D02*
X0447754Y0192914D01*
X0447754Y0202914D02*
X0452554Y0202914D01*
X0452554Y0227914D02*
X0447754Y0227914D01*
X0447754Y0237914D02*
X0452554Y0237914D01*
D19*
X0453154Y0157914D02*
X0447154Y0157914D01*
X0447154Y0147914D02*
X0453154Y0147914D01*
X0453154Y0137914D02*
X0447154Y0137914D01*
X0447154Y0127914D02*
X0453154Y0127914D01*
X0290654Y0075414D02*
X0284654Y0075414D01*
X0284654Y0065414D02*
X0290654Y0065414D01*
D20*
X0282029Y0069789D03*
X0305154Y0038539D03*
X0318279Y0081664D03*
X0332654Y0086664D03*
X0353279Y0091039D03*
X0323904Y0103539D03*
X0326404Y0116039D03*
X0320154Y0120414D03*
X0315779Y0116039D03*
X0310779Y0116039D03*
X0302654Y0116039D03*
X0299529Y0116039D03*
X0303279Y0121664D03*
X0295779Y0130414D03*
X0292654Y0130414D03*
X0288904Y0130414D03*
X0285779Y0132289D03*
X0283279Y0139164D03*
X0281404Y0142914D03*
X0278279Y0144164D03*
X0273279Y0146664D03*
X0273279Y0149789D03*
X0273279Y0157914D03*
X0273279Y0165414D03*
X0275779Y0169164D03*
X0275779Y0172289D03*
X0275154Y0180414D03*
X0282654Y0180414D03*
X0285779Y0171664D03*
X0285779Y0168539D03*
X0288904Y0168539D03*
X0290154Y0162914D03*
X0285779Y0162289D03*
X0282029Y0157914D03*
X0290154Y0155414D03*
X0297654Y0155414D03*
X0305154Y0155414D03*
X0305154Y0162914D03*
X0310154Y0168539D03*
X0308279Y0174164D03*
X0304529Y0180414D03*
X0301404Y0180414D03*
X0297029Y0180414D03*
X0295779Y0189164D03*
X0293904Y0191039D03*
X0292654Y0197289D03*
X0291404Y0199789D03*
X0283904Y0202914D03*
X0289529Y0211664D03*
X0289529Y0221039D03*
X0290154Y0229789D03*
X0295154Y0227914D03*
X0295154Y0235414D03*
X0283904Y0232914D03*
X0280779Y0233539D03*
X0278904Y0235414D03*
X0267654Y0247914D03*
X0268904Y0253539D03*
X0266404Y0259164D03*
X0260779Y0258539D03*
X0278279Y0259164D03*
X0287029Y0259164D03*
X0281404Y0279164D03*
X0277029Y0291664D03*
X0273904Y0291664D03*
X0270779Y0291664D03*
X0266404Y0291664D03*
X0263279Y0291664D03*
X0258904Y0285414D03*
X0273279Y0295414D03*
X0268904Y0310414D03*
X0275779Y0311664D03*
X0250779Y0314789D03*
X0227654Y0317289D03*
X0213904Y0319789D03*
X0213904Y0324789D03*
X0204529Y0325414D03*
X0192654Y0321664D03*
X0182654Y0321664D03*
X0172654Y0321664D03*
X0167654Y0325414D03*
X0162654Y0321664D03*
X0155154Y0312289D03*
X0150154Y0321664D03*
X0147029Y0321664D03*
X0145154Y0334164D03*
X0164529Y0339164D03*
X0155154Y0352914D03*
X0146404Y0371664D03*
X0157029Y0376039D03*
X0198279Y0369789D03*
X0203904Y0371039D03*
X0230154Y0379789D03*
X0244529Y0382914D03*
X0251404Y0379164D03*
X0253279Y0374789D03*
X0263904Y0379164D03*
X0265154Y0372914D03*
X0273279Y0366039D03*
X0284529Y0387289D03*
X0234529Y0359164D03*
X0208279Y0301664D03*
X0209529Y0293539D03*
X0211404Y0291664D03*
X0226404Y0291664D03*
X0195779Y0297914D03*
X0174529Y0299789D03*
X0168904Y0291664D03*
X0160779Y0291664D03*
X0151404Y0282914D03*
X0159529Y0259164D03*
X0165779Y0254164D03*
X0162029Y0250414D03*
X0172029Y0259164D03*
X0212029Y0259164D03*
X0218279Y0259164D03*
X0221404Y0254789D03*
X0222029Y0251039D03*
X0232029Y0259164D03*
X0233279Y0233539D03*
X0243279Y0217914D03*
X0249529Y0217914D03*
X0264529Y0214164D03*
X0269529Y0213539D03*
X0279529Y0216664D03*
X0302654Y0209789D03*
X0306404Y0204789D03*
X0309529Y0196664D03*
X0309529Y0191664D03*
X0304529Y0193539D03*
X0314529Y0197289D03*
X0318904Y0189164D03*
X0325779Y0189164D03*
X0329529Y0189164D03*
X0329529Y0186039D03*
X0325154Y0184789D03*
X0320779Y0180414D03*
X0321404Y0175414D03*
X0332654Y0177289D03*
X0332654Y0181039D03*
X0340779Y0177289D03*
X0340154Y0173539D03*
X0353279Y0187914D03*
X0343904Y0196664D03*
X0337654Y0196664D03*
X0335154Y0198539D03*
X0333279Y0196664D03*
X0330154Y0204789D03*
X0332029Y0206664D03*
X0325154Y0201039D03*
X0320779Y0204789D03*
X0320154Y0214789D03*
X0315154Y0232289D03*
X0309529Y0242914D03*
X0328904Y0239164D03*
X0342029Y0231664D03*
X0395154Y0234789D03*
X0435779Y0234789D03*
X0449529Y0261039D03*
X0449529Y0273539D03*
X0449529Y0286039D03*
X0413279Y0341039D03*
X0434529Y0354164D03*
X0437654Y0370414D03*
X0433279Y0376664D03*
X0424529Y0377914D03*
X0410154Y0382914D03*
X0404529Y0387289D03*
X0384529Y0387289D03*
X0384529Y0367289D03*
X0382029Y0353539D03*
X0380154Y0347914D03*
X0222029Y0201664D03*
X0218904Y0201664D03*
X0224529Y0194789D03*
X0217654Y0191664D03*
X0232029Y0183539D03*
X0232029Y0180414D03*
X0222654Y0175414D03*
X0220779Y0173539D03*
X0214529Y0176039D03*
X0211404Y0176039D03*
X0206404Y0168539D03*
X0188904Y0156664D03*
X0189529Y0153539D03*
X0178904Y0152289D03*
X0176404Y0140414D03*
X0161404Y0141664D03*
X0161404Y0144789D03*
X0161404Y0151664D03*
X0161404Y0156664D03*
X0161404Y0161664D03*
X0169529Y0161664D03*
X0161404Y0170414D03*
X0161404Y0177914D03*
X0172654Y0176039D03*
X0178279Y0170414D03*
X0175154Y0191664D03*
X0178279Y0197914D03*
X0162654Y0211664D03*
X0158904Y0215414D03*
X0155779Y0204164D03*
X0152654Y0204164D03*
X0133904Y0215414D03*
X0133904Y0220414D03*
X0115779Y0215414D03*
X0115779Y0211039D03*
X0110154Y0214789D03*
X0097654Y0218539D03*
X0097029Y0212914D03*
X0091404Y0226664D03*
X0119529Y0240414D03*
X0121404Y0247914D03*
X0116404Y0251039D03*
X0070779Y0269789D03*
X0070779Y0279164D03*
X0058904Y0274164D03*
X0055154Y0289789D03*
X0042654Y0290414D03*
X0042654Y0279164D03*
X0037029Y0267289D03*
X0060779Y0256664D03*
X0061404Y0239789D03*
X0037654Y0204164D03*
X0023904Y0153539D03*
X0044529Y0131039D03*
X0046404Y0111664D03*
X0065154Y0096664D03*
X0067654Y0102289D03*
X0072654Y0122289D03*
X0077654Y0132914D03*
X0086404Y0124789D03*
X0102654Y0132914D03*
X0106404Y0135414D03*
X0120779Y0132289D03*
X0127029Y0130414D03*
X0127029Y0124789D03*
X0118904Y0119164D03*
X0129529Y0102914D03*
X0143904Y0116039D03*
X0161404Y0113539D03*
X0170154Y0114164D03*
X0161404Y0119789D03*
X0161404Y0132289D03*
X0161404Y0138539D03*
X0148904Y0144789D03*
X0148904Y0147914D03*
X0146404Y0146664D03*
X0142654Y0144164D03*
X0147654Y0152289D03*
X0140779Y0156664D03*
X0145779Y0166664D03*
X0147654Y0172914D03*
X0147654Y0182289D03*
X0147654Y0185414D03*
X0125779Y0165414D03*
X0122029Y0165414D03*
X0120779Y0169789D03*
X0118904Y0174789D03*
X0122029Y0184164D03*
X0106404Y0179164D03*
X0106404Y0176039D03*
X0106404Y0172914D03*
X0103279Y0178539D03*
X0100154Y0179164D03*
X0098904Y0169789D03*
X0103904Y0163539D03*
X0106404Y0162289D03*
X0106404Y0153539D03*
X0103904Y0151664D03*
X0091404Y0141664D03*
X0088904Y0144164D03*
X0088904Y0151664D03*
X0063904Y0153539D03*
X0106404Y0198539D03*
X0130154Y0138539D03*
X0096404Y0091664D03*
X0104529Y0089789D03*
X0172654Y0085414D03*
X0194529Y0089164D03*
X0199529Y0069789D03*
X0227654Y0111039D03*
X0240779Y0122914D03*
X0252654Y0122914D03*
X0255154Y0127914D03*
X0258904Y0124164D03*
X0258279Y0134164D03*
X0255154Y0134164D03*
X0253279Y0137289D03*
X0261404Y0139164D03*
X0263904Y0136039D03*
X0273279Y0136039D03*
X0273904Y0139164D03*
X0278279Y0137289D03*
X0270154Y0127914D03*
X0283279Y0121664D03*
X0298279Y0139164D03*
X0297029Y0144164D03*
X0297654Y0147914D03*
X0290154Y0147914D03*
X0305154Y0147914D03*
X0315154Y0142289D03*
X0322654Y0148539D03*
X0322654Y0154789D03*
X0322029Y0157914D03*
X0318279Y0156039D03*
X0316404Y0157914D03*
X0320154Y0163539D03*
X0332029Y0160414D03*
X0331404Y0154789D03*
X0334529Y0151664D03*
X0338279Y0146664D03*
X0336404Y0144164D03*
X0332654Y0142289D03*
X0331404Y0130414D03*
X0324529Y0126039D03*
X0318904Y0130414D03*
X0315779Y0130414D03*
X0321404Y0136039D03*
X0333279Y0120414D03*
X0336404Y0119164D03*
X0302029Y0135414D03*
X0297654Y0162914D03*
X0273279Y0189164D03*
X0277654Y0193539D03*
X0267654Y0194789D03*
X0263904Y0179789D03*
X0263904Y0174789D03*
X0260154Y0172289D03*
X0255779Y0178539D03*
X0253279Y0179789D03*
X0251404Y0172289D03*
X0247654Y0172289D03*
X0243279Y0161664D03*
X0248279Y0159789D03*
X0250779Y0152289D03*
X0243279Y0151664D03*
X0257029Y0147914D03*
X0261404Y0150414D03*
X0259529Y0152289D03*
X0263904Y0151664D03*
X0263904Y0148539D03*
X0263904Y0157914D03*
X0258279Y0161664D03*
X0227654Y0166039D03*
X0238279Y0194789D03*
X0195154Y0139164D03*
X0193279Y0137289D03*
X0209529Y0126664D03*
X0209529Y0123539D03*
X0195154Y0119164D03*
X0270779Y0101039D03*
X0343904Y0154789D03*
X0367029Y0159164D03*
X0367029Y0162289D03*
X0396404Y0185414D03*
X0418904Y0163539D03*
X0405779Y0159789D03*
X0458904Y0132289D03*
X0457029Y0124789D03*
X0458904Y0099789D03*
X0452654Y0099789D03*
X0452654Y0081664D03*
X0161404Y0025414D03*
X0028279Y0306039D03*
X0103904Y0321664D03*
X0112029Y0326664D03*
D21*
X0105779Y0326664D01*
X0105779Y0311664D01*
X0108904Y0308539D01*
X0111404Y0308539D01*
X0130154Y0289789D01*
X0167029Y0289789D01*
X0168904Y0291664D01*
X0160779Y0291664D02*
X0145154Y0307289D01*
X0120154Y0307289D01*
X0114529Y0312914D01*
X0114529Y0328539D01*
X0114529Y0334789D01*
X0118279Y0338539D01*
X0123904Y0338539D01*
X0143279Y0357914D01*
X0144529Y0357914D01*
X0144529Y0399164D01*
X0145075Y0399193D01*
X0154529Y0399164D02*
X0155075Y0399193D01*
X0154529Y0399164D02*
X0154529Y0371664D01*
X0146404Y0371664D01*
X0152654Y0364164D02*
X0125779Y0337289D01*
X0118904Y0337289D01*
X0115779Y0334164D01*
X0115779Y0313539D01*
X0119529Y0313539D01*
X0120154Y0312914D01*
X0125779Y0311664D02*
X0125779Y0328539D01*
X0135779Y0328539D01*
X0140154Y0332914D01*
X0169529Y0362289D01*
X0184529Y0362289D01*
X0184529Y0399164D01*
X0185075Y0399193D01*
X0194529Y0399164D02*
X0195075Y0399193D01*
X0194529Y0399164D02*
X0194529Y0344789D01*
X0182029Y0344789D01*
X0174529Y0337289D01*
X0154529Y0337289D01*
X0150154Y0332914D01*
X0145154Y0334164D02*
X0145154Y0317289D01*
X0134529Y0317289D01*
X0130154Y0312914D01*
X0125779Y0311664D02*
X0128904Y0308539D01*
X0145779Y0308539D01*
X0159529Y0294789D01*
X0208279Y0294789D01*
X0209529Y0293539D01*
X0208279Y0301664D02*
X0206404Y0303539D01*
X0193904Y0303539D01*
X0184529Y0312914D01*
X0184529Y0327289D01*
X0180154Y0327289D01*
X0174529Y0332914D01*
X0174529Y0337289D01*
X0170154Y0332914D02*
X0164529Y0332914D01*
X0164529Y0312914D01*
X0181404Y0296039D01*
X0222029Y0296039D01*
X0226404Y0291664D01*
X0233904Y0287289D02*
X0216404Y0304789D01*
X0198279Y0304789D01*
X0190154Y0312914D01*
X0192654Y0312914D01*
X0192654Y0321664D01*
X0194529Y0327289D02*
X0186404Y0327289D01*
X0182654Y0331039D01*
X0224529Y0372914D01*
X0224529Y0399164D01*
X0225075Y0399193D01*
X0234529Y0399164D02*
X0235075Y0399193D01*
X0234529Y0399164D02*
X0234529Y0382914D01*
X0233279Y0382914D01*
X0230154Y0379789D01*
X0239529Y0386039D02*
X0200779Y0347289D01*
X0200779Y0332914D01*
X0200154Y0332914D01*
X0200779Y0332914D02*
X0213904Y0319789D01*
X0213904Y0324789D02*
X0214529Y0324789D01*
X0214529Y0352914D01*
X0244529Y0382914D01*
X0243279Y0384789D02*
X0255154Y0384789D01*
X0255154Y0329164D01*
X0274529Y0309789D01*
X0281404Y0309789D01*
X0281404Y0279164D01*
X0277029Y0291664D02*
X0273279Y0295414D01*
X0273904Y0291664D02*
X0272029Y0289789D01*
X0269529Y0289789D01*
X0268279Y0291039D01*
X0268279Y0307289D01*
X0205779Y0307289D01*
X0200154Y0312914D01*
X0204529Y0312914D02*
X0204529Y0325414D01*
X0204529Y0326664D01*
X0197029Y0326664D01*
X0190779Y0332914D01*
X0190154Y0332914D01*
X0194529Y0327289D02*
X0194529Y0312914D01*
X0201404Y0306039D01*
X0252029Y0306039D01*
X0266404Y0291664D01*
X0270779Y0291664D02*
X0270779Y0308539D01*
X0208904Y0308539D01*
X0204529Y0312914D01*
X0215779Y0312914D02*
X0220154Y0312914D01*
X0215779Y0312914D02*
X0215779Y0340414D01*
X0234529Y0359164D01*
X0214529Y0371039D02*
X0203904Y0371039D01*
X0204529Y0372914D02*
X0201404Y0372914D01*
X0198279Y0369789D01*
X0204529Y0372914D02*
X0204529Y0399164D01*
X0205075Y0399193D01*
X0214529Y0399164D02*
X0215075Y0399193D01*
X0214529Y0399164D02*
X0214529Y0371039D01*
X0213279Y0354789D02*
X0243279Y0384789D01*
X0244529Y0386039D02*
X0239529Y0386039D01*
X0244529Y0386039D02*
X0244529Y0399164D01*
X0245075Y0399193D01*
X0255075Y0399193D02*
X0255154Y0399164D01*
X0255154Y0384789D01*
X0251404Y0379164D02*
X0251404Y0318539D01*
X0228904Y0318539D01*
X0227654Y0317289D01*
X0230154Y0312914D02*
X0231404Y0312914D01*
X0235779Y0317289D01*
X0248279Y0317289D01*
X0253279Y0317289D01*
X0253279Y0374789D01*
X0265154Y0372914D02*
X0273279Y0381039D01*
X0274529Y0381039D01*
X0274529Y0399164D01*
X0275075Y0399193D01*
X0284529Y0399164D02*
X0284529Y0389164D01*
X0283279Y0389164D01*
X0275779Y0381664D01*
X0275779Y0366039D01*
X0273279Y0366039D01*
X0284529Y0387289D02*
X0284529Y0344164D01*
X0283279Y0344164D01*
X0275779Y0336664D01*
X0275779Y0311664D01*
X0268904Y0310414D02*
X0266404Y0312914D01*
X0240154Y0312914D01*
X0248279Y0317289D02*
X0250779Y0314789D01*
X0257029Y0287289D02*
X0233904Y0287289D01*
X0257029Y0287289D02*
X0258904Y0285414D01*
X0251404Y0261039D02*
X0269529Y0242914D01*
X0309529Y0242914D01*
X0317029Y0239164D02*
X0328904Y0239164D01*
X0335154Y0241039D02*
X0235154Y0241039D01*
X0223279Y0252914D01*
X0169529Y0252914D01*
X0135154Y0218539D01*
X0105779Y0218539D01*
X0067654Y0180414D01*
X0067654Y0102289D01*
X0065154Y0096664D02*
X0073279Y0104789D01*
X0322029Y0104789D01*
X0336404Y0119164D01*
X0333279Y0120414D02*
X0330779Y0117914D01*
X0197029Y0117914D01*
X0196404Y0117289D01*
X0145779Y0117289D01*
X0138279Y0124789D01*
X0127029Y0124789D01*
X0127029Y0130414D02*
X0210779Y0130414D01*
X0213279Y0127914D01*
X0249529Y0127914D01*
X0251404Y0126039D01*
X0308279Y0126039D01*
X0314529Y0132289D01*
X0317654Y0132289D01*
X0321404Y0136039D01*
X0318279Y0137914D02*
X0345779Y0137914D01*
X0367029Y0159164D01*
X0367029Y0162289D02*
X0343904Y0139164D01*
X0305779Y0139164D01*
X0302029Y0135414D01*
X0300154Y0141039D02*
X0260154Y0141039D01*
X0259529Y0140414D01*
X0197029Y0140414D01*
X0185154Y0152289D01*
X0178904Y0152289D01*
X0176404Y0156664D02*
X0188904Y0156664D01*
X0190779Y0156664D01*
X0205154Y0142289D01*
X0280779Y0142289D01*
X0281404Y0142914D01*
X0278279Y0144164D02*
X0277654Y0143539D01*
X0248279Y0143539D01*
X0240154Y0151664D01*
X0240154Y0157914D01*
X0249529Y0157914D01*
X0250154Y0158539D01*
X0250154Y0163539D01*
X0112654Y0163539D01*
X0103279Y0172914D01*
X0103279Y0178539D01*
X0106404Y0179164D02*
X0114529Y0179164D01*
X0118904Y0174789D01*
X0114529Y0176039D02*
X0120779Y0169789D01*
X0122029Y0165414D02*
X0114529Y0172914D01*
X0106404Y0172914D01*
X0106404Y0176039D02*
X0114529Y0176039D01*
X0122029Y0184164D02*
X0123279Y0185414D01*
X0147654Y0185414D01*
X0147654Y0204164D01*
X0158904Y0215414D01*
X0160154Y0217289D02*
X0106404Y0217289D01*
X0072654Y0183539D01*
X0072654Y0122289D01*
X0077654Y0132914D02*
X0083904Y0126664D01*
X0209529Y0126664D01*
X0213279Y0122914D01*
X0240779Y0122914D01*
X0248904Y0126664D02*
X0212654Y0126664D01*
X0210779Y0128539D01*
X0101404Y0128539D01*
X0087029Y0142914D01*
X0087029Y0196039D01*
X0091404Y0196039D01*
X0110154Y0214789D01*
X0115779Y0215414D02*
X0115779Y0211039D01*
X0097029Y0212914D02*
X0121404Y0237289D01*
X0121404Y0247914D01*
X0119529Y0240414D02*
X0097654Y0218539D01*
X0088904Y0182289D02*
X0147654Y0182289D01*
X0145154Y0181039D02*
X0097029Y0181039D01*
X0091404Y0175414D01*
X0091404Y0141664D01*
X0088904Y0144164D02*
X0088904Y0151664D01*
X0088904Y0182289D01*
X0097029Y0179164D02*
X0100154Y0179164D01*
X0097029Y0179164D02*
X0097029Y0162914D01*
X0102654Y0157289D01*
X0105779Y0157289D01*
X0108279Y0154789D01*
X0153279Y0154789D01*
X0159529Y0148539D01*
X0163279Y0148539D01*
X0163279Y0140414D01*
X0161404Y0138539D01*
X0161404Y0141664D02*
X0145154Y0141664D01*
X0142654Y0144164D01*
X0148904Y0147914D02*
X0158279Y0147914D01*
X0161404Y0144789D01*
X0163279Y0150414D02*
X0163279Y0156664D01*
X0161404Y0156664D01*
X0140779Y0156664D01*
X0147654Y0152289D02*
X0132029Y0136664D01*
X0125154Y0136664D01*
X0120779Y0132289D01*
X0122029Y0130414D02*
X0111404Y0130414D01*
X0106404Y0135414D01*
X0122029Y0130414D02*
X0125779Y0134164D01*
X0208904Y0134164D01*
X0213279Y0129789D01*
X0253279Y0129789D01*
X0255154Y0127914D01*
X0254529Y0130414D02*
X0253904Y0131039D01*
X0213904Y0131039D01*
X0209529Y0135414D01*
X0178279Y0135414D01*
X0163279Y0150414D01*
X0161404Y0161664D02*
X0107029Y0161664D01*
X0106404Y0162289D01*
X0103904Y0163539D02*
X0103904Y0159789D01*
X0220779Y0159789D01*
X0222654Y0161664D01*
X0243279Y0161664D01*
X0247654Y0159164D02*
X0222029Y0159164D01*
X0221404Y0158539D01*
X0103279Y0158539D01*
X0098904Y0162914D01*
X0098904Y0169789D01*
X0106404Y0153539D02*
X0115154Y0153539D01*
X0130154Y0138539D01*
X0118904Y0119164D02*
X0128904Y0109164D01*
X0308904Y0109164D01*
X0315779Y0116039D01*
X0318904Y0119164D02*
X0320154Y0120414D01*
X0318904Y0119164D02*
X0195154Y0119164D01*
X0209529Y0137289D02*
X0214529Y0132289D01*
X0285779Y0132289D01*
X0288904Y0134164D02*
X0258279Y0134164D01*
X0254529Y0130414D02*
X0288904Y0130414D01*
X0288904Y0134164D02*
X0292654Y0130414D01*
X0283279Y0139164D02*
X0280154Y0139164D01*
X0278279Y0137289D01*
X0274529Y0144789D02*
X0260154Y0144789D01*
X0257029Y0147914D01*
X0261404Y0150414D02*
X0244529Y0150414D01*
X0243279Y0151664D01*
X0250779Y0152289D02*
X0258279Y0159789D01*
X0267654Y0159789D01*
X0273279Y0165414D01*
X0274529Y0166664D01*
X0450154Y0166664D01*
X0457029Y0159789D01*
X0457029Y0137914D01*
X0450154Y0137914D01*
X0454529Y0133539D02*
X0445154Y0133539D01*
X0440154Y0128539D01*
X0317654Y0128539D01*
X0315779Y0130414D01*
X0318904Y0130414D02*
X0325154Y0136664D01*
X0392029Y0136664D01*
X0418904Y0163539D01*
X0405779Y0159789D02*
X0401404Y0164164D01*
X0332654Y0164164D01*
X0328904Y0160414D01*
X0281404Y0160414D01*
X0277029Y0156039D01*
X0263279Y0156039D01*
X0259529Y0152289D01*
X0263904Y0157914D02*
X0264529Y0158539D01*
X0270779Y0158539D01*
X0277654Y0165414D01*
X0432654Y0165414D01*
X0450154Y0147914D01*
X0458279Y0137289D02*
X0458279Y0189164D01*
X0423904Y0189164D01*
X0420154Y0192914D01*
X0414529Y0192914D02*
X0414529Y0202914D01*
X0420154Y0202914D01*
X0414529Y0206664D02*
X0438904Y0206664D01*
X0448904Y0196664D01*
X0453904Y0196664D01*
X0460779Y0189789D01*
X0460779Y0099789D01*
X0458904Y0099789D01*
X0452029Y0092914D01*
X0338904Y0092914D01*
X0332654Y0086664D01*
X0323279Y0102914D02*
X0132654Y0102914D01*
X0121404Y0091664D01*
X0096404Y0091664D01*
X0103279Y0107914D02*
X0086404Y0124789D01*
X0103279Y0107914D02*
X0318279Y0107914D01*
X0326404Y0116039D01*
X0322654Y0124164D02*
X0258904Y0124164D01*
X0252654Y0122914D02*
X0248904Y0126664D01*
X0261404Y0139164D02*
X0195154Y0139164D01*
X0193279Y0137289D02*
X0209529Y0137289D01*
X0218904Y0166664D02*
X0159529Y0166664D01*
X0145154Y0181039D01*
X0147654Y0172914D02*
X0133279Y0172914D01*
X0125779Y0165414D01*
X0161404Y0170414D02*
X0168904Y0177914D01*
X0255154Y0177914D01*
X0255779Y0178539D01*
X0258279Y0174164D02*
X0226404Y0174164D01*
X0218904Y0166664D01*
X0218904Y0168539D02*
X0206404Y0168539D01*
X0217654Y0170414D02*
X0178279Y0170414D01*
X0161404Y0177914D02*
X0175154Y0191664D01*
X0173904Y0203539D02*
X0160154Y0217289D01*
X0162654Y0211664D02*
X0157029Y0206039D01*
X0154529Y0206039D01*
X0152654Y0204164D01*
X0173904Y0203539D02*
X0277029Y0203539D01*
X0278279Y0204789D01*
X0292029Y0204789D01*
X0293904Y0202914D01*
X0328904Y0202914D01*
X0328904Y0201039D01*
X0333279Y0196664D01*
X0335154Y0198539D02*
X0335154Y0241039D01*
X0337654Y0250414D02*
X0268904Y0250414D01*
X0260779Y0258539D01*
X0266404Y0259164D02*
X0268904Y0256664D01*
X0333279Y0256664D01*
X0343904Y0246039D01*
X0343904Y0196664D01*
X0337654Y0196664D02*
X0337654Y0250414D01*
X0317029Y0239164D02*
X0289529Y0211664D01*
X0287654Y0209789D02*
X0302654Y0209789D01*
X0306404Y0204789D02*
X0308279Y0206664D01*
X0332029Y0206664D01*
X0325154Y0201039D02*
X0313904Y0201039D01*
X0309529Y0196664D01*
X0309529Y0191664D02*
X0299529Y0201664D01*
X0293279Y0201664D01*
X0292029Y0202914D01*
X0283904Y0202914D01*
X0287654Y0209789D02*
X0287654Y0216039D01*
X0277029Y0226664D01*
X0240154Y0226664D01*
X0233279Y0233539D01*
X0245154Y0227914D02*
X0295154Y0227914D01*
X0291404Y0199789D02*
X0223904Y0199789D01*
X0222029Y0201664D01*
X0218904Y0201664D02*
X0223279Y0197289D01*
X0292654Y0197289D01*
X0293904Y0191039D02*
X0277029Y0191039D01*
X0275154Y0192914D01*
X0226404Y0192914D01*
X0224529Y0194789D01*
X0217654Y0191664D02*
X0235779Y0191664D01*
X0240154Y0187289D01*
X0293904Y0187289D01*
X0295779Y0189164D01*
X0293904Y0183539D02*
X0232029Y0183539D01*
X0227029Y0176664D02*
X0218904Y0168539D01*
X0217654Y0170414D02*
X0220779Y0173539D01*
X0227029Y0176664D02*
X0271404Y0176664D01*
X0275154Y0180414D01*
X0282654Y0180414D02*
X0284529Y0178539D01*
X0330779Y0178539D01*
X0331404Y0179164D01*
X0387029Y0179164D01*
X0414529Y0206664D01*
X0414529Y0192914D02*
X0392029Y0170414D01*
X0290779Y0170414D01*
X0288904Y0168539D01*
X0288904Y0171664D02*
X0285779Y0168539D01*
X0285779Y0171664D02*
X0290154Y0176039D01*
X0318904Y0176039D01*
X0320154Y0177289D01*
X0332654Y0177289D01*
X0332029Y0180414D02*
X0320779Y0180414D01*
X0318904Y0189164D02*
X0324529Y0194789D01*
X0358279Y0194789D01*
X0449529Y0286039D01*
X0449529Y0273539D02*
X0446404Y0273539D01*
X0366404Y0193539D01*
X0330154Y0193539D01*
X0325779Y0189164D01*
X0329529Y0189164D02*
X0332654Y0192289D01*
X0367029Y0192289D01*
X0435779Y0261039D01*
X0449529Y0261039D01*
X0435779Y0234789D02*
X0390779Y0189789D01*
X0333279Y0189789D01*
X0329529Y0186039D01*
X0332654Y0181039D02*
X0332029Y0180414D01*
X0348279Y0182914D02*
X0353279Y0187914D01*
X0348279Y0182914D02*
X0307029Y0182914D01*
X0304529Y0180414D01*
X0297029Y0180414D02*
X0293904Y0183539D01*
X0288904Y0171664D02*
X0382654Y0171664D01*
X0396404Y0185414D01*
X0445779Y0132289D02*
X0458904Y0132289D01*
X0454529Y0133539D02*
X0458279Y0137289D01*
X0457029Y0124789D02*
X0426404Y0094164D01*
X0211404Y0094164D01*
X0182654Y0065414D01*
X0198279Y0066664D02*
X0198279Y0061039D01*
X0228279Y0061039D01*
X0232654Y0065414D01*
X0207029Y0069789D02*
X0282029Y0069789D01*
X0265154Y0095414D02*
X0200779Y0095414D01*
X0194529Y0089164D01*
X0199529Y0069789D02*
X0199529Y0067914D01*
X0198279Y0066664D01*
X0202654Y0065414D02*
X0207029Y0069789D01*
X0171404Y0112289D02*
X0162654Y0112289D01*
X0161404Y0113539D01*
X0170154Y0114164D02*
X0300779Y0114164D01*
X0302654Y0116039D01*
X0299529Y0116039D02*
X0143904Y0116039D01*
X0161404Y0119789D02*
X0162654Y0121039D01*
X0282654Y0121039D01*
X0283279Y0121664D01*
X0270779Y0128539D02*
X0308904Y0128539D01*
X0318279Y0137914D01*
X0320154Y0146039D02*
X0275779Y0146039D01*
X0274529Y0144789D01*
X0273279Y0149789D02*
X0281404Y0157914D01*
X0282029Y0157914D01*
X0300154Y0141039D02*
X0303279Y0144164D01*
X0334529Y0144164D01*
X0334529Y0151664D01*
X0336404Y0156039D02*
X0336404Y0144164D01*
X0336404Y0156039D02*
X0332029Y0160414D01*
X0322654Y0154789D02*
X0321404Y0156039D01*
X0318279Y0156039D01*
X0322654Y0148539D02*
X0320154Y0146039D01*
X0324529Y0126039D02*
X0322654Y0124164D01*
X0310779Y0116039D02*
X0307654Y0112914D01*
X0172029Y0112914D01*
X0171404Y0112289D01*
X0176404Y0140414D02*
X0176404Y0156664D01*
X0247654Y0159164D02*
X0248279Y0159789D01*
X0258279Y0161664D02*
X0247654Y0172289D01*
X0258279Y0174164D02*
X0260154Y0172289D01*
X0267654Y0194789D02*
X0268279Y0195414D01*
X0302654Y0195414D01*
X0304529Y0193539D01*
X0249529Y0217914D02*
X0243279Y0217914D01*
X0245154Y0227914D02*
X0222029Y0251039D01*
X0221404Y0254789D02*
X0218904Y0257289D01*
X0161404Y0257289D01*
X0159529Y0259164D01*
X0165779Y0254164D02*
X0162029Y0250414D01*
X0172029Y0259164D02*
X0173904Y0261039D01*
X0251404Y0261039D01*
X0218279Y0259164D02*
X0212029Y0259164D01*
X0195779Y0297914D02*
X0185154Y0308539D01*
X0178904Y0308539D01*
X0174529Y0312914D01*
X0174529Y0325414D01*
X0167654Y0325414D01*
X0172654Y0321664D02*
X0172654Y0312914D01*
X0170154Y0312914D01*
X0165779Y0308539D02*
X0154529Y0308539D01*
X0150154Y0312914D01*
X0155154Y0312289D02*
X0155154Y0319164D01*
X0149529Y0319164D01*
X0147029Y0321664D01*
X0160154Y0312914D02*
X0162654Y0312914D01*
X0162654Y0321664D01*
X0165779Y0308539D02*
X0174529Y0299789D01*
X0180154Y0312914D02*
X0182654Y0312914D01*
X0182654Y0321664D01*
X0182654Y0331039D02*
X0180779Y0332914D01*
X0180154Y0332914D01*
X0210154Y0332914D02*
X0210154Y0354789D01*
X0213279Y0354789D01*
X0174529Y0363539D02*
X0160779Y0363539D01*
X0130154Y0332914D01*
X0132029Y0337289D02*
X0127654Y0337289D01*
X0123279Y0332914D01*
X0120154Y0332914D01*
X0114529Y0328539D02*
X0104529Y0328539D01*
X0100154Y0332914D01*
X0095779Y0337289D02*
X0105779Y0337289D01*
X0110154Y0332914D01*
X0103904Y0321664D02*
X0103904Y0312914D01*
X0100154Y0312914D01*
X0095779Y0310414D02*
X0095779Y0337289D01*
X0095779Y0310414D02*
X0125779Y0280414D01*
X0148904Y0280414D01*
X0151404Y0282914D01*
X0132029Y0337289D02*
X0159529Y0364789D01*
X0164529Y0364789D01*
X0164529Y0399164D01*
X0165075Y0399193D01*
X0174529Y0399164D02*
X0175075Y0399193D01*
X0174529Y0399164D02*
X0174529Y0363539D01*
X0157029Y0364164D02*
X0157029Y0376039D01*
X0157029Y0364164D02*
X0152654Y0364164D01*
X0070779Y0279164D02*
X0070779Y0269789D01*
X0060779Y0256664D02*
X0042654Y0274789D01*
X0042654Y0279164D01*
X0023904Y0153539D02*
X0063904Y0153539D01*
X0037654Y0065414D02*
X0012654Y0065414D01*
X0012354Y0065264D01*
X0037654Y0065414D02*
X0037954Y0065264D01*
X0265154Y0095414D02*
X0270779Y0101039D01*
X0270154Y0127914D02*
X0270779Y0128539D01*
X0303279Y0121664D02*
X0303904Y0122289D01*
X0435779Y0122289D01*
X0445779Y0132289D01*
X0443279Y0091039D02*
X0353279Y0091039D01*
X0323904Y0103539D02*
X0323279Y0102914D01*
X0443279Y0091039D02*
X0452654Y0081664D01*
X0390154Y0312914D02*
X0433279Y0356039D01*
X0433279Y0376664D01*
X0424529Y0377914D02*
X0424529Y0349164D01*
X0403904Y0328539D01*
X0400154Y0328539D01*
X0387654Y0316039D01*
X0383279Y0316039D01*
X0380154Y0312914D01*
X0385154Y0317289D02*
X0395779Y0327914D01*
X0395779Y0371664D01*
X0398904Y0371664D01*
X0410154Y0382914D01*
X0404529Y0379164D02*
X0401404Y0379164D01*
X0384529Y0362289D01*
X0384529Y0318539D01*
X0365779Y0318539D01*
X0360154Y0312914D01*
X0354529Y0312914D02*
X0350154Y0312914D01*
X0354529Y0312914D02*
X0354529Y0332914D01*
X0358904Y0337289D01*
X0382029Y0337289D01*
X0382029Y0353539D01*
X0380154Y0347914D02*
X0380154Y0359789D01*
X0395779Y0375414D01*
X0395779Y0381664D01*
X0403279Y0389164D01*
X0404529Y0389164D01*
X0404529Y0399164D01*
X0405075Y0399193D01*
X0414529Y0399164D02*
X0415075Y0399193D01*
X0414529Y0399164D02*
X0414529Y0341039D01*
X0413279Y0341039D01*
X0434529Y0354164D02*
X0435154Y0354164D01*
X0435154Y0399164D01*
X0435075Y0399193D01*
X0404529Y0387289D02*
X0404529Y0379164D01*
X0394529Y0376039D02*
X0390154Y0376039D01*
X0377029Y0362914D01*
X0377029Y0339789D01*
X0341404Y0339789D01*
X0335779Y0334164D01*
X0335779Y0328539D01*
X0345779Y0328539D01*
X0350154Y0332914D01*
X0345779Y0338539D02*
X0340154Y0332914D01*
X0345779Y0338539D02*
X0378279Y0338539D01*
X0378279Y0359789D01*
X0384529Y0366039D01*
X0384529Y0367289D01*
X0394529Y0376039D02*
X0394529Y0399164D01*
X0395075Y0399193D01*
X0385075Y0399193D02*
X0384529Y0399164D01*
X0384529Y0387289D01*
X0385154Y0317289D02*
X0374529Y0317289D01*
X0370154Y0312914D01*
X0285075Y0399193D02*
X0284529Y0399164D01*
D22*
X0265075Y0399193D02*
X0264529Y0399164D01*
X0264529Y0379164D01*
X0263904Y0379164D01*
X0437654Y0387289D02*
X0437654Y0370414D01*
X0437654Y0387289D02*
X0438904Y0387289D01*
X0444529Y0392914D01*
X0444529Y0399164D01*
X0445075Y0399193D01*
X0287654Y0075414D02*
X0284529Y0072289D01*
X0193279Y0072289D01*
X0187654Y0066664D01*
X0187654Y0060414D01*
X0097654Y0060414D01*
X0046404Y0111664D01*
X0058904Y0274164D02*
X0042654Y0290414D01*
M02*
