<?xml version="1.0" encoding="UTF-8"?>
<!-- Created with EazyDraw for Mac ( http://www.eazydraw.com/ ) -->

<svg
    version="1.1"
    baseProfile="basic"
    xmlns:dc="http://purl.org/dc/elements/1.1/"
    xmlns:cc="http://creativecommons.org/ns#"
    xmlns:rdf="http://www.w3.org/1999/02/22-rdf-syntax-ns#"
    xmlns:svg="http://www.w3.org/2000/svg"
    xmlns:xlink="http://www.w3.org/1999/xlink"
    xmlns="http://www.w3.org/2000/svg"
    width="646.765879265"
    height="378.419422572"
    viewBox="0, 0, 485.074409449, 283.814566929"
    preserveAspectRatio="none"
    id="svg2">
   <defs
       id="defs_BDE3331F"/>
   <metadata
       id="metadata7">
      <rdf:RDF>
         <cc:Work
             rdf:about="">
            <dc:format>image/svg+xml</dc:format>
            <dc:type rdf:resource="http://purl.org/dc/dcmitype/StillImage"/>
            <dc:title></dc:title>
         </cc:Work>
      </rdf:RDF>
   </metadata>
   <g
       id="layer_Paper"
       style="fill:#000000;fill-opacity:1;stroke:#000000;stroke-opacity:1;fill-rule:nonzero;stroke-linecap:square;stroke-linejoin:miter;stroke-width:1;stroke-miterlimit:10">
      <polyline
          style="fill:none;stroke-width:0.25"
          id="4AB27BFD"
          points="0.175,258.127755905 12.930905512,258.127755905 18.6001968502,263.797047244 18.6001968502,270.883661417 18.6001968502,283.639566929 484.899409449,283.639566929 484.899409449,0.175 0.175,0.175 0.175,34.1907480315 0.175,258.127755905"/>
      <path
          style="stroke:none"
          id="69022907"
          d="M10.0962598425,234.883661417 C11.9860236221,234.883661417 13.8757874016,234.883661417 15.7655511812,234.883661417 C17.8915354331,234.883661417 20.0175196851,237.009645669 20.0175196851,239.135629921 C20.0175196851,241.970275591 20.0175196851,244.80492126 20.0175196851,247.639566929
C20.0175196851,249.765551181 17.8915354331,251.891535433 15.7655511812,251.891535433 C13.8757874016,251.891535433 11.9860236221,251.891535433 10.0962598425,251.891535433 C7.970275590568,251.891535433 5.8442913386,249.765551181 5.8442913386,247.639566929
C5.8442913386,244.80492126 5.8442913386,241.970275591 5.8442913386,239.135629921 C5.8442913386,237.009645669 7.970275590568,234.883661417 10.0962598425,234.883661417 z"/>
      <path
          style="stroke:none"
          id="1FD0E417"
          d="M10.0962598425,39.0096456693 C11.9860236221,39.0096456693 13.8757874016,39.0096456693 15.7655511812,39.0096456693 C17.8915354331,39.0096456693 20.0175196851,41.1356299213 20.0175196851,43.2616141732 C20.0175196851,46.0962598425 20.0175196851,48.9309055118 20.0175196851,51.7655511811
C20.0175196851,53.891535433 17.8915354331,56.017519685 15.7655511812,56.017519685 C13.8757874016,56.017519685 11.9860236221,56.017519685 10.0962598425,56.017519685 C7.970275590568,56.017519685 5.8442913386,53.891535433 5.8442913386,51.7655511811
C5.8442913386,48.9309055118 5.8442913386,46.0962598425 5.8442913386,43.2616141732 C5.8442913386,41.1356299213 7.970275590568,39.0096456693 10.0962598425,39.0096456693 z"/>
      <path
          style="stroke:none"
          id="F3C4C817"
          d="M469.308858268,243.387598425 C471.198622048,243.387598425 473.088385827,243.387598425 474.978149607,243.387598425 C477.104133859,243.387598425 479.230118111,245.513582677 479.230118111,247.639566929 C479.230118111,250.474212599 479.230118111,253.308858268 479.230118111,256.143503937
C479.230118111,258.269488189 477.104133859,260.395472441 474.978149607,260.395472441 C473.088385827,260.395472441 471.198622048,260.395472441 469.308858268,260.395472441 C467.182874016,260.395472441 465.056889764,258.269488189 465.056889764,256.143503937
C465.056889764,253.308858268 465.056889764,250.474212599 465.056889764,247.639566929 C465.056889764,245.513582677 467.182874016,243.387598425 469.308858268,243.387598425 z"/>
      <path
          style="stroke:none"
          id="89BC6917"
          d="M469.308858268,39.0096456693 C471.198622048,39.0096456693 473.088385827,39.0096456693 474.978149607,39.0096456693 C477.104133859,39.0096456693 479.230118111,41.1356299213 479.230118111,43.2616141732 C479.230118111,46.0962598425 479.230118111,48.9309055118 479.230118111,51.7655511811
C479.230118111,53.891535433 477.104133859,56.017519685 474.978149607,56.017519685 C473.088385827,56.017519685 471.198622048,56.017519685 469.308858268,56.017519685 C467.182874016,56.017519685 465.056889764,53.891535433 465.056889764,51.7655511811
C465.056889764,48.9309055118 465.056889764,46.0962598425 465.056889764,43.2616141732 C465.056889764,41.1356299213 467.182874016,39.0096456693 469.308858268,39.0096456693 z"/>
      <rect
          style="fill:none"
          id="7BA9B35E"
          x="42.6946850394"
          y="31.3561023623"
          width="36"
          height="198.42519685"/>
      <rect
          style="fill:none"
          id="C9EB975E"
          x="102.222244094"
          y="31.3561023623"
          width="36"
          height="198.42519685"/>
      <rect
          style="fill:none"
          id="BD15B95E"
          x="161.749803149"
          y="31.3561023623"
          width="36"
          height="198.42519685"/>
      <rect
          style="fill:none"
          id="4464CA5E"
          x="221.277362205"
          y="31.3561023623"
          width="36"
          height="198.42519685"/>
      <rect
          style="fill:none"
          id="9B79FD5E"
          x="280.80492126"
          y="31.3561023623"
          width="36"
          height="198.42519685"/>
      <rect
          style="fill:none"
          id="BBED1F5E"
          x="340.332480315"
          y="31.3561023623"
          width="36"
          height="198.42519685"/>
      <rect
          style="fill:none"
          id="2A4CCF5E"
          x="399.86003937"
          y="31.3561023623"
          width="36"
          height="198.42519685"/>
      <circle
          style="stroke:none"
          id="4151B89E"
          cx="52.3324803151"
          cy="8.678937007937"
          r="4.251968503937"/>
      <circle
          style="stroke:none"
          id="5561EF9E"
          cx="113.277362205"
          cy="8.678937007937"
          r="4.251968503937"/>
      <circle
          style="stroke:none"
          id="3E2662AE"
          cx="172.80492126"
          cy="8.678937007937"
          r="4.251968503937"/>
      <circle
          style="stroke:none"
          id="8D7363AE"
          cx="232.332480315"
          cy="8.678937007937"
          r="4.251968503937"/>
      <circle
          style="stroke:none"
          id="C46975AE"
          cx="291.86003937"
          cy="8.678937007937"
          r="4.251968503937"/>
      <circle
          style="stroke:none"
          id="6F8886AE"
          cx="351.387598425"
          cy="8.678937007937"
          r="4.251968503937"/>
      <circle
          style="stroke:none"
          id="6583F8AE"
          cx="410.631692913"
          cy="8.678937007937"
          r="4.251968503937"/>
      <circle
          style="stroke:none"
          id="08938AFE"
          cx="78.6946850394"
          cy="17.1828740158"
          r="7.08661417325"/>
      <circle
          style="stroke:none"
          id="E49BFFFE"
          cx="138.222244094"
          cy="17.1828740157"
          r="7.08661417325"/>
      <circle
          style="stroke:none"
          id="0EE5020F"
          cx="197.749803149"
          cy="17.1828740157"
          r="7.08661417325"/>
      <circle
          style="stroke:none"
          id="0849230F"
          cx="257.277362204"
          cy="17.1828740157"
          r="7.08661417325"/>
      <circle
          style="stroke:none"
          id="539BE30F"
          cx="316.804921259"
          cy="17.1828740157"
          r="7.08661417325"/>
      <circle
          style="stroke:none"
          id="B448650F"
          cx="376.332480315"
          cy="17.1828740157"
          r="7.08661417325"/>
      <circle
          style="stroke:none"
          id="87F3360F"
          cx="435.86003937"
          cy="17.1828740157"
          r="7.08661417325"/>
   </g>
</svg>
