<?xml version="1.0" encoding="UTF-8"?>
<!-- Created with EazyDraw for Mac ( http://www.eazydraw.com/ ) -->

<svg
    version="1.1"
    baseProfile="basic"
    xmlns:dc="http://purl.org/dc/elements/1.1/"
    xmlns:cc="http://creativecommons.org/ns#"
    xmlns:rdf="http://www.w3.org/1999/02/22-rdf-syntax-ns#"
    xmlns:svg="http://www.w3.org/2000/svg"
    xmlns:xlink="http://www.w3.org/1999/xlink"
    xmlns="http://www.w3.org/2000/svg"
    width="415.31691053"
    height="415.316415354"
    viewBox="0, 0, 311.487682897, 311.487311516"
    preserveAspectRatio="none"
    id="svg2">
   <defs
       id="defs_8DE60347"/>
   <metadata
       id="metadata7">
      <rdf:RDF>
         <cc:Work
             rdf:about="">
            <dc:format>image/svg+xml</dc:format>
            <dc:type rdf:resource="http://purl.org/dc/dcmitype/StillImage"/>
            <dc:title></dc:title>
         </cc:Work>
      </rdf:RDF>
   </metadata>
   <g
       id="layer_Paper"
       style="fill:#000000;fill-opacity:1;stroke:#000000;stroke-opacity:1;fill-rule:nonzero;stroke-linecap:square;stroke-linejoin:miter;stroke-width:1;stroke-miterlimit:10">
      <path
          style="fill:none"
          id="F820D147"
          d="M0.546991054953,3.38126542145 L0.546991054953,278.341895185 C0.543849416354,279.085024201 0.849546531596,279.823042323 1.377239572321,280.346292416 C1.900489665132,280.873985456 2.638507786727,281.179682572 3.381636803092,281.176540933
L95.5076208973,281.176540933 C96.2507499137,281.173399294 96.9887680353,281.47909641 97.5120181281,282.00678945 C98.0397111688,282.530039543 98.3454082841,283.268057665 98.3422666455,284.011186681 L98.3422666455,308.105674712
C98.3391250069,308.848803729 98.6448221221,309.58682185 99.1725151628,310.110071943 C99.6957652556,310.637764984 100.433783377,310.943462099 101.176912394,310.940320461 L308.106046094,310.940320461 C308.84917511,310.943462099 309.587193232,310.637764984 310.110443325,310.110071943
C310.638136366,309.58682185 310.943833481,308.848803729 310.940691842,308.105674712 L310.940691842,283.768012481 C310.940896944,283.396925737 310.867115521,283.026001475 310.724917283,282.683240517 C310.583098024,282.34032258 310.372986307,282.025868174 310.110443325,281.76361525
L29.7236962652,1.37686819068 C29.4614433416,1.114325208659 29.1469889353,0.904213491771 28.8040709989,0.762394232825 C28.4613100409,0.62019599428 28.090385778,0.54641457103 27.7192990345,0.546619673311
L3.381636803092,0.546619673311 C2.638507786727,0.543478034712 1.900489665132,0.849175149955 1.377239572321,1.37686819068 C0.849546531596,1.90011828349 0.543849416354,2.638136405086 0.546991054953,3.38126542145
z"/>
      <path
          id="69022907"
          d="M9.050928062841,237.239533059 C10.9406918424,237.239533059 12.8304556219,237.239533059 14.7202194014,237.239533059 C16.8462036534,237.239533059 18.9721879054,239.365517311 18.9721879054,241.491501563 C18.9721879054,244.326147232 18.9721879054,247.160792902 18.9721879054,249.995438571
C18.9721879054,252.121422823 16.8462036534,254.247407075 14.7202194014,254.247407075 C12.8304556219,254.247407075 10.9406918424,254.247407075 9.050928062841,254.247407075 C6.924943810873,254.247407075 4.798959558904,252.121422823 4.798959558904,249.995438571
C4.798959558904,247.160792902 4.798959558904,244.326147232 4.798959558904,241.491501563 C4.798959558904,239.365517311 6.924943810873,237.239533059 9.050928062841,237.239533059 z"/>
      <path
          id="1FD0E417"
          d="M9.050928062825,41.6489818781 C10.9406918424,41.6489818781 12.8304556219,41.6489818781 14.7202194015,41.6489818781 C16.8462036534,41.6489818781 18.9721879054,43.7749661301 18.9721879054,45.900950382 C18.9721879054,48.7355960513 18.9721879054,51.5702417206 18.9721879054,54.4048873899
C18.9721879054,56.5308716418 16.8462036534,58.6568558938 14.7202194015,58.6568558938 C12.8304556219,58.6568558938 10.9406918424,58.6568558938 9.050928062825,58.6568558938 C6.924943810857,58.6568558938 4.798959558888,56.5308716418 4.798959558888,54.4048873899
C4.798959558888,51.5702417206 4.798959558888,48.7355960513 4.798959558888,45.900950382 C4.798959558888,43.7749661301 6.924943810857,41.6489818781 9.050928062825,41.6489818781 z"/>
      <path
          id="F3C4C817"
          d="M108.263526488,291.097800776 C111.098172157,291.097800776 113.932817827,291.097800776 116.767463496,291.097800776 C118.893447748,291.097800776 121.019432,293.223785028 121.019432,295.349769279 C121.019432,297.239533059 121.019432,299.129296839 121.019432,301.019060618
C121.019432,303.14504487 118.893447748,305.271029122 116.767463496,305.271029122 C113.932817827,305.271029122 111.098172157,305.271029122 108.263526488,305.271029122 C106.137542236,305.271029122 104.011557984,303.14504487 104.011557984,301.019060618
C104.011557984,299.129296839 104.011557984,297.239533059 104.011557984,295.349769279 C104.011557984,293.223785028 106.137542236,291.097800776 108.263526488,291.097800776 z"/>
      <path
          id="89BC6917"
          d="M278.342266645,291.097800776 C281.176912315,291.097800776 284.011557984,291.097800776 286.846203653,291.097800776 C288.972187905,291.097800776 291.098172157,293.223785028 291.098172157,295.349769279 C291.098172157,297.239533059 291.098172157,299.129296839 291.098172157,301.019060618
C291.098172157,303.14504487 288.972187905,305.271029122 286.846203653,305.271029122 C284.011557984,305.271029122 281.176912315,305.271029122 278.342266645,305.271029122 C276.216282393,305.271029122 274.090298141,303.14504487 274.090298141,301.019060618
C274.090298141,299.129296839 274.090298141,297.239533059 274.090298141,295.349769279 C274.090298141,293.223785028 276.216282393,291.097800776 278.342266645,291.097800776 z"/>
   </g>
</svg>
