<?xml version="1.0" encoding="UTF-8"?>
<!-- Created with EazyDraw for Mac ( http://www.eazydraw.com/ ) -->

<svg
    version="1.1"
    baseProfile="basic"
    xmlns:dc="http://purl.org/dc/elements/1.1/"
    xmlns:cc="http://creativecommons.org/ns#"
    xmlns:rdf="http://www.w3.org/1999/02/22-rdf-syntax-ns#"
    xmlns:svg="http://www.w3.org/2000/svg"
    xmlns:xlink="http://www.w3.org/1999/xlink"
    xmlns="http://www.w3.org/2000/svg"
    width="350.199910179"
    height="326.506036745"
    viewBox="0, 0, 262.649932635, 244.879527559"
    preserveAspectRatio="none"
    id="svg2">
   <defs
       id="defs_7A93AC1F"/>
   <metadata
       id="metadata7">
      <rdf:RDF>
         <cc:Work
             rdf:about="">
            <dc:format>image/svg+xml</dc:format>
            <dc:type rdf:resource="http://purl.org/dc/dcmitype/StillImage"/>
            <dc:title></dc:title>
         </cc:Work>
      </rdf:RDF>
   </metadata>
   <g
       id="layer_Paper"
       style="fill:#000000;fill-opacity:1;stroke:#000000;stroke-opacity:1;fill-rule:nonzero;stroke-linecap:square;stroke-linejoin:miter;stroke-width:1;stroke-miterlimit:10">
      <polyline
          style="fill:none"
          id="4AB27BFD"
          points="0.55,221.652362205 27.4791338582,221.652362205 84.1720472441,221.652362205 84.1720472441,244.329527559 257.085433071,244.329527559 257.085433071,220.23503937 261.337401575,220.23503937 27.4791338582,0.55 0.55,0.55 0.55,221.652362205"/>
      <path
          style="stroke:none"
          id="69022907"
          d="M9.053937007937,200.392519685 C10.9437007875,200.392519685 12.833464567,200.392519685 14.7232283466,200.392519685 C16.8492125985,200.392519685 18.9751968505,202.518503937 18.9751968505,204.644488189 C18.9751968505,207.479133858 18.9751968505,210.313779527 18.9751968505,213.148425197
C18.9751968505,215.274409449 16.8492125985,217.400393701 14.7232283466,217.400393701 C12.833464567,217.400393701 10.9437007875,217.400393701 9.053937007937,217.400393701 C6.927952755969,217.400393701 4.801968504,215.274409449 4.801968504,213.148425197
C4.801968504,210.313779527 4.801968504,207.479133858 4.801968504,204.644488189 C4.801968504,202.518503937 6.927952755969,200.392519685 9.053937007937,200.392519685 z"/>
      <path
          style="stroke:none"
          id="1FD0E417"
          d="M9.053937007937,4.801968504 C10.9437007875,4.801968504 12.833464567,4.801968504 14.7232283466,4.801968504 C16.8492125985,4.801968504 18.9751968505,6.927952755969 18.9751968505,9.053937007937 C18.9751968505,11.8885826772 18.9751968505,14.7232283465 18.9751968505,17.5578740158
C18.9751968505,19.6838582677 16.8492125985,21.8098425197 14.7232283466,21.8098425197 C12.833464567,21.8098425197 10.9437007875,21.8098425197 9.053937007937,21.8098425197 C6.927952755969,21.8098425197 4.801968504,19.6838582677 4.801968504,17.5578740158
C4.801968504,14.7232283465 4.801968504,11.8885826772 4.801968504,9.053937007937 C4.801968504,6.927952755969 6.927952755969,4.801968504 9.053937007937,4.801968504 z"/>
      <path
          style="stroke:none"
          id="F3C4C817"
          d="M94.0933070864,225.904330709 C96.9279527557,225.904330709 99.762598425,225.904330709 102.597244094,225.904330709 C104.723228346,225.904330709 106.849212598,228.030314961 106.849212598,230.156299213 C106.849212598,232.046062992 106.849212598,233.935826772 106.849212598,235.825590552
C106.849212598,237.951574804 104.723228346,240.077559056 102.597244094,240.077559056 C99.762598425,240.077559056 96.9279527557,240.077559056 94.0933070864,240.077559056 C91.9673228345,240.077559056 89.8413385825,237.951574804 89.8413385825,235.825590552
C89.8413385825,233.935826772 89.8413385825,232.046062992 89.8413385825,230.156299213 C89.8413385825,228.030314961 91.9673228345,225.904330709 94.0933070864,225.904330709 z"/>
      <path
          style="stroke:none"
          id="89BC6917"
          d="M235.825590551,225.904330709 C238.660236221,225.904330709 241.49488189,225.904330709 244.329527559,225.904330709 C246.455511811,225.904330709 248.581496063,228.030314961 248.581496063,230.156299213 C248.581496063,232.046062992 248.581496063,233.935826772 248.581496063,235.825590552
C248.581496063,237.951574804 246.455511811,240.077559056 244.329527559,240.077559056 C241.49488189,240.077559056 238.660236221,240.077559056 235.825590551,240.077559056 C233.699606299,240.077559056 231.573622047,237.951574804 231.573622047,235.825590552
C231.573622047,233.935826772 231.573622047,232.046062992 231.573622047,230.156299213 C231.573622047,228.030314961 233.699606299,225.904330709 235.825590551,225.904330709 z"/>
   </g>
</svg>
